<svg version="1.1" id="Layer_1" xmlns="http://www.w3.org/2000/svg" xmlns:xlink="http://www.w3.org/1999/xlink" x="0px" y="0px"
	 width="100%" viewBox="0 0 1536 768" enable-background="new 0 0 1536 768" xml:space="preserve">
<path fill="#242124" opacity="1.000000" stroke="none" 
	d="
M1147.000000,769.000000 
	C764.666687,769.000000 382.833344,769.000000 1.000000,769.000000 
	C1.000000,513.000000 1.000000,257.000000 1.000000,1.000000 
	C513.000000,1.000000 1025.000000,1.000000 1537.000000,1.000000 
	C1537.000000,257.000000 1537.000000,513.000000 1537.000000,769.000000 
	C1407.166626,769.000000 1277.333374,769.000000 1147.000000,769.000000 
M154.655762,355.499451 
	C154.655762,371.612061 154.655762,387.724701 154.655762,403.975891 
	C564.438660,403.975891 973.670959,403.975891 1382.960693,403.975891 
	C1382.960693,320.747009 1382.960693,237.705597 1382.960693,154.781647 
	C973.389038,154.781647 564.200867,154.781647 154.655807,154.781647 
	C154.655807,221.575226 154.655807,288.037323 154.655762,355.499451 
M670.701416,556.844849 
	C664.166199,556.985229 663.770325,557.348877 663.753418,563.534851 
	C663.743469,567.185059 664.011902,570.848267 663.791382,574.483521 
	C662.726013,592.046509 668.886047,607.191895 679.854004,620.366028 
	C694.670166,638.162415 712.826172,651.702698 736.560913,653.060974 
	C761.455566,654.485596 786.663757,655.202148 811.428528,652.912964 
	C841.977234,650.089172 863.222778,631.485718 877.591370,604.954407 
	C884.257019,592.646423 884.383789,579.140991 884.042542,565.582520 
	C883.822815,556.850342 884.000793,556.844971 875.502869,556.844971 
	C807.554199,556.844727 739.605469,556.844849 670.701416,556.844849 
M941.823120,457.163330 
	C941.823120,458.639801 941.823120,460.116272 941.823120,461.496582 
	C1012.454102,461.496582 1082.650024,461.496582 1152.744629,461.496582 
	C1152.744629,455.021881 1152.744629,448.925293 1152.744629,442.645752 
	C1082.414673,442.645752 1012.357422,442.645752 941.823120,442.645752 
	C941.823120,447.310211 941.823120,451.774261 941.823120,457.163330 
M539.500244,442.429535 
	C488.082947,442.429535 436.665680,442.429535 385.367706,442.429535 
	C385.367706,449.245026 385.367706,455.472809 385.367706,461.598083 
	C455.785919,461.598083 525.818665,461.598083 595.808411,461.598083 
	C595.808411,455.089294 595.808411,448.860291 595.808411,442.429565 
	C577.127258,442.429565 558.813782,442.429565 539.500244,442.429535 
M781.525879,481.407928 
	C777.602112,481.407928 773.678284,481.407928 769.731689,481.407928 
	C769.731689,485.064362 769.731689,487.962738 769.731689,491.060516 
	C772.505249,491.251709 774.971680,491.490509 777.443604,491.581207 
	C796.044067,492.263519 814.645325,492.926086 833.246948,493.575653 
	C846.196289,494.027863 859.144714,494.536102 872.097717,494.845093 
	C877.755249,494.980103 880.519287,492.039062 879.860901,487.056946 
	C879.145020,481.639343 875.078857,481.409180 870.909119,481.408936 
	C841.445496,481.407318 811.981873,481.408020 781.525879,481.407928 
M865.724854,455.979401 
	C868.363037,455.650024 871.025513,455.450104 873.633972,454.961731 
	C877.836365,454.174927 879.464905,451.586426 878.581604,447.449432 
	C877.461975,442.205627 875.323914,441.173828 868.364441,442.188812 
	C847.826233,445.184204 827.278625,448.114899 806.735413,451.076019 
	C794.448975,452.846954 782.163818,454.627533 769.836670,456.409760 
	C769.836670,459.781769 769.836670,462.806122 769.836670,466.090942 
	C801.782959,462.703644 833.304626,459.361389 865.724854,455.979401 
M712.021057,530.499878 
	C712.021057,508.698059 712.008667,486.896271 712.033386,465.094452 
	C712.037415,461.534027 712.424500,457.299042 707.484436,457.330994 
	C702.981628,457.360168 702.967957,461.335022 703.060425,464.794159 
	C703.067993,465.076202 702.839661,465.364532 702.608704,465.919525 
	C694.136414,467.177124 685.527710,468.454956 676.627258,469.776123 
	C676.981812,472.124176 677.242249,473.848846 677.533569,475.778534 
	C686.190002,474.912323 694.411255,474.089661 702.815674,473.248688 
	C702.815674,476.021454 702.815674,478.593689 702.815674,481.531616 
	C694.095520,481.531616 685.679749,481.531616 677.172363,481.531616 
	C677.172363,483.945862 677.172363,485.984589 677.172363,488.696899 
	C685.934082,488.696899 694.343140,488.696899 703.171143,488.696899 
	C703.171143,509.927582 703.171143,530.478088 703.171143,551.258118 
	C706.335632,551.258118 709.059875,551.258118 712.021057,551.258118 
	C712.021057,544.461060 712.021057,537.980408 712.021057,530.499878 
M758.581116,498.619354 
	C764.026550,499.517487 765.539124,498.264771 765.577759,492.273529 
	C765.661621,479.289001 765.657776,466.303223 765.569031,453.318787 
	C765.544861,449.777466 766.235474,445.037750 760.898865,445.055756 
	C755.454773,445.074097 756.387268,449.899414 756.477173,453.360016 
	C756.566284,456.793518 756.109558,459.328888 751.973083,459.162109 
	C751.973083,462.053406 751.973083,464.690735 751.973083,467.556580 
	C753.457947,467.730042 754.803772,467.887238 756.187378,468.048889 
	C756.187378,472.553192 756.187378,476.664581 756.187378,480.926208 
	C754.667419,481.269196 753.313965,481.574615 752.010010,481.868896 
	C752.010010,484.851532 752.010010,487.479187 752.010010,490.117218 
	C753.567749,490.560150 754.936768,490.949432 755.540649,491.121124 
	C756.524658,493.870789 757.285950,495.998077 758.581116,498.619354 
M742.558655,446.157288 
	C737.069580,447.453003 738.644409,451.908569 738.459167,455.499969 
	C738.305786,458.471252 739.246399,462.012634 734.254395,461.119324 
	C734.254395,464.262482 734.254395,466.828613 734.254395,469.383514 
	C735.733276,469.455597 736.949768,469.514862 738.114746,469.571655 
	C739.024231,480.459290 739.024231,480.459290 734.221191,482.364380 
	C734.221191,484.840515 734.221191,487.275635 734.221191,489.768158 
	C735.709351,489.972382 736.972900,490.145813 738.279358,490.325104 
	C738.335693,491.335266 738.436523,492.162872 738.418335,492.987823 
	C738.344788,496.325928 739.105469,499.215027 743.151794,499.100006 
	C747.059265,498.988922 747.205688,496.006714 747.196045,492.982422 
	C747.152344,479.343445 747.123840,465.703888 747.218323,452.065399 
	C747.239136,449.060730 746.662720,446.789368 742.558655,446.157288 
M716.420349,468.455811 
	C717.454956,469.941162 718.489563,471.426514 719.524170,472.911865 
	C719.905640,472.720917 720.287048,472.529968 720.668518,472.339020 
	C720.668518,475.113159 720.668518,477.887268 720.668518,480.661407 
	C720.284241,480.495850 719.899963,480.330292 719.515686,480.164734 
	C718.483704,481.885681 716.614746,483.620636 716.643311,485.323792 
	C716.675049,487.217987 718.435608,489.083191 719.443542,490.961029 
	C719.861938,490.772827 720.280396,490.584625 720.698853,490.396423 
	C720.784546,492.215820 720.466187,494.189301 721.082642,495.806366 
	C721.583618,497.120453 723.074585,498.638000 724.367432,498.906891 
	C725.676270,499.179138 727.852539,498.443665 728.612671,497.396973 
	C729.579346,496.066071 729.812378,493.980743 729.827393,492.216125 
	C729.924988,480.754883 729.882080,469.292389 729.869324,457.830322 
	C729.868225,456.839325 730.128967,455.529602 729.614197,454.919678 
	C728.277893,453.336182 726.576843,452.060486 725.021362,450.661957 
	C723.635376,452.210693 721.590881,453.554962 721.030457,455.360016 
	C720.333679,457.603912 720.863342,460.228577 720.863342,462.688812 
	C720.411560,462.515137 719.959778,462.341461 719.507996,462.167755 
	C718.478577,463.979553 717.449097,465.791321 716.420349,468.455811 
z"/>
<path fill="#F7F4EF" opacity="1.000000" stroke="none" 
	d="
M154.655792,354.999451 
	C154.655807,288.037323 154.655807,221.575226 154.655807,154.781647 
	C564.200867,154.781647 973.389038,154.781647 1382.960693,154.781647 
	C1382.960693,237.705597 1382.960693,320.747009 1382.960693,403.975891 
	C973.670959,403.975891 564.438660,403.975891 154.655762,403.975891 
	C154.655762,387.724701 154.655762,371.612061 154.655792,354.999451 
M671.500061,173.856415 
	C518.460144,173.856415 365.420166,173.856415 212.522064,173.856415 
	C212.522064,244.706528 212.522064,314.763153 212.522064,384.707703 
	C583.747131,384.707703 954.612000,384.707703 1325.563477,384.707703 
	C1325.563477,314.356812 1325.563477,244.292068 1325.563477,173.856415 
	C1107.692505,173.856415 890.096313,173.856415 671.500061,173.856415 
M173.857819,309.499939 
	C173.857819,334.574890 173.857819,359.649841 173.857819,384.723755 
	C180.548950,384.723755 186.624146,384.723755 192.783478,384.723755 
	C192.783478,314.402710 192.783478,244.350510 192.783478,174.229706 
	C186.379089,174.229706 180.189056,174.229706 173.857819,174.229706 
	C173.857819,219.234268 173.857819,263.867096 173.857819,309.499939 
M1364.141968,259.500061 
	C1364.141968,231.074921 1364.141968,202.649780 1364.141968,174.089142 
	C1357.545410,174.089142 1351.475098,174.089142 1345.343262,174.089142 
	C1345.343262,244.490555 1345.343262,314.660126 1345.343262,384.685425 
	C1351.770752,384.685425 1357.858765,384.685425 1364.141968,384.685425 
	C1364.141968,343.085876 1364.141968,301.792969 1364.141968,259.500061 
z"/>
<path fill="#F9F6F1" opacity="1.000000" stroke="none" 
	d="
M671.179077,556.844849 
	C739.605469,556.844849 807.554199,556.844727 875.502869,556.844971 
	C884.000793,556.844971 883.822815,556.850342 884.042542,565.582520 
	C884.383789,579.140991 884.257019,592.646423 877.591370,604.954407 
	C863.222778,631.485718 841.977234,650.089172 811.428528,652.912964 
	C786.663757,655.202148 761.455566,654.485596 736.560913,653.060974 
	C712.826172,651.702698 694.670166,638.162415 679.854004,620.366028 
	C668.886047,607.191895 662.726013,592.046509 663.791382,574.483521 
	C664.011902,570.848267 663.743469,567.185059 663.753418,563.534851 
	C663.770325,557.348877 664.166199,556.985229 671.179077,556.844849 
z"/>
<path fill="#F2EFEB" opacity="1.000000" stroke="none" 
	d="
M941.823120,456.700806 
	C941.823120,451.774261 941.823120,447.310211 941.823120,442.645752 
	C1012.357422,442.645752 1082.414673,442.645752 1152.744629,442.645752 
	C1152.744629,448.925293 1152.744629,455.021881 1152.744629,461.496582 
	C1082.650024,461.496582 1012.454102,461.496582 941.823120,461.496582 
	C941.823120,460.116272 941.823120,458.639801 941.823120,456.700806 
z"/>
<path fill="#F2EFEB" opacity="1.000000" stroke="none" 
	d="
M540.000244,442.429565 
	C558.813782,442.429565 577.127258,442.429565 595.808411,442.429565 
	C595.808411,448.860291 595.808411,455.089294 595.808411,461.598083 
	C525.818665,461.598083 455.785919,461.598083 385.367706,461.598083 
	C385.367706,455.472809 385.367706,449.245026 385.367706,442.429535 
	C436.665680,442.429535 488.082947,442.429535 540.000244,442.429565 
z"/>
<path fill="#EDEAE7" opacity="1.000000" stroke="none" 
	d="
M782.022095,481.407959 
	C811.981873,481.408020 841.445496,481.407318 870.909119,481.408936 
	C875.078857,481.409180 879.145020,481.639343 879.860901,487.056946 
	C880.519287,492.039062 877.755249,494.980103 872.097717,494.845093 
	C859.144714,494.536102 846.196289,494.027863 833.246948,493.575653 
	C814.645325,492.926086 796.044067,492.263519 777.443604,491.581207 
	C774.971680,491.490509 772.505249,491.251709 769.731689,491.060516 
	C769.731689,487.962738 769.731689,485.064362 769.731689,481.407928 
	C773.678284,481.407928 777.602112,481.407928 782.022095,481.407959 
z"/>
<path fill="#F3F0EC" opacity="1.000000" stroke="none" 
	d="
M865.275574,455.999268 
	C833.304626,459.361389 801.782959,462.703644 769.836670,466.090942 
	C769.836670,462.806122 769.836670,459.781769 769.836670,456.409760 
	C782.163818,454.627533 794.448975,452.846954 806.735413,451.076019 
	C827.278625,448.114899 847.826233,445.184204 868.364441,442.188812 
	C875.323914,441.173828 877.461975,442.205627 878.581604,447.449432 
	C879.464905,451.586426 877.836365,454.174927 873.633972,454.961731 
	C871.025513,455.450104 868.363037,455.650024 865.275574,455.999268 
z"/>
<path fill="#F0EEEA" opacity="1.000000" stroke="none" 
	d="
M712.021057,530.999817 
	C712.021057,537.980408 712.021057,544.461060 712.021057,551.258118 
	C709.059875,551.258118 706.335632,551.258118 703.171143,551.258118 
	C703.171143,530.478088 703.171143,509.927582 703.171143,488.696899 
	C694.343140,488.696899 685.934082,488.696899 677.172363,488.696899 
	C677.172363,485.984589 677.172363,483.945862 677.172363,481.531616 
	C685.679749,481.531616 694.095520,481.531616 702.815674,481.531616 
	C702.815674,478.593689 702.815674,476.021454 702.815674,473.248688 
	C694.411255,474.089661 686.190002,474.912323 677.533569,475.778534 
	C677.242249,473.848846 676.981812,472.124176 676.627258,469.776123 
	C685.527710,468.454956 694.136414,467.177124 702.608704,465.919525 
	C702.839661,465.364532 703.067993,465.076202 703.060425,464.794159 
	C702.967957,461.335022 702.981628,457.360168 707.484436,457.330994 
	C712.424500,457.299042 712.037415,461.534027 712.033386,465.094452 
	C712.008667,486.896271 712.021057,508.698059 712.021057,530.999817 
z"/>
<path fill="#EAE8E4" opacity="1.000000" stroke="none" 
	d="
M758.314209,498.372375 
	C757.285950,495.998077 756.524658,493.870789 755.540649,491.121124 
	C754.936768,490.949432 753.567749,490.560150 752.010010,490.117218 
	C752.010010,487.479187 752.010010,484.851532 752.010010,481.868896 
	C753.313965,481.574615 754.667419,481.269196 756.187378,480.926208 
	C756.187378,476.664581 756.187378,472.553192 756.187378,468.048889 
	C754.803772,467.887238 753.457947,467.730042 751.973083,467.556580 
	C751.973083,464.690735 751.973083,462.053406 751.973083,459.162109 
	C756.109558,459.328888 756.566284,456.793518 756.477173,453.360016 
	C756.387268,449.899414 755.454773,445.074097 760.898865,445.055756 
	C766.235474,445.037750 765.544861,449.777466 765.569031,453.318787 
	C765.657776,466.303223 765.661621,479.289001 765.577759,492.273529 
	C765.539124,498.264771 764.026550,499.517487 758.314209,498.372375 
z"/>
<path fill="#F2EFEB" opacity="1.000000" stroke="none" 
	d="
M742.943726,446.156067 
	C746.662720,446.789368 747.239136,449.060730 747.218323,452.065399 
	C747.123840,465.703888 747.152344,479.343445 747.196045,492.982422 
	C747.205688,496.006714 747.059265,498.988922 743.151794,499.100006 
	C739.105469,499.215027 738.344788,496.325928 738.418335,492.987823 
	C738.436523,492.162872 738.335693,491.335266 738.279358,490.325104 
	C736.972900,490.145813 735.709351,489.972382 734.221191,489.768158 
	C734.221191,487.275635 734.221191,484.840515 734.221191,482.364380 
	C739.024231,480.459290 739.024231,480.459290 738.114746,469.571655 
	C736.949768,469.514862 735.733276,469.455597 734.254395,469.383514 
	C734.254395,466.828613 734.254395,464.262482 734.254395,461.119324 
	C739.246399,462.012634 738.305786,458.471252 738.459167,455.499969 
	C738.644409,451.908569 737.069580,447.453003 742.943726,446.156067 
z"/>
<path fill="#EFEDE9" opacity="1.000000" stroke="none" 
	d="
M716.420044,468.029480 
	C717.449097,465.791321 718.478577,463.979553 719.507996,462.167755 
	C719.959778,462.341461 720.411560,462.515137 720.863342,462.688812 
	C720.863342,460.228577 720.333679,457.603912 721.030457,455.360016 
	C721.590881,453.554962 723.635376,452.210693 725.021362,450.661957 
	C726.576843,452.060486 728.277893,453.336182 729.614197,454.919678 
	C730.128967,455.529602 729.868225,456.839325 729.869324,457.830322 
	C729.882080,469.292389 729.924988,480.754883 729.827393,492.216125 
	C729.812378,493.980743 729.579346,496.066071 728.612671,497.396973 
	C727.852539,498.443665 725.676270,499.179138 724.367432,498.906891 
	C723.074585,498.638000 721.583618,497.120453 721.082642,495.806366 
	C720.466187,494.189301 720.784546,492.215820 720.698853,490.396423 
	C720.280396,490.584625 719.861938,490.772827 719.443542,490.961029 
	C718.435608,489.083191 716.675049,487.217987 716.643311,485.323792 
	C716.614746,483.620636 718.483704,481.885681 719.515686,480.164734 
	C719.899963,480.330292 720.284241,480.495850 720.668518,480.661407 
	C720.668518,477.887268 720.668518,475.113159 720.668518,472.339020 
	C720.287048,472.529968 719.905640,472.720917 719.524170,472.911865 
	C718.489563,471.426514 717.454956,469.941162 716.420044,468.029480 
z"/>
<path fill="#242124" opacity="1.000000" stroke="none" 
	d="
M672.000122,173.856415 
	C890.096313,173.856415 1107.692505,173.856415 1325.563477,173.856415 
	C1325.563477,244.292068 1325.563477,314.356812 1325.563477,384.707703 
	C954.612000,384.707703 583.747131,384.707703 212.522064,384.707703 
	C212.522064,314.763153 212.522064,244.706528 212.522064,173.856415 
	C365.420166,173.856415 518.460144,173.856415 672.000122,173.856415 
M617.849121,299.513428 
	C620.632507,289.394592 623.415955,279.275757 626.199402,269.156921 
	C626.551453,269.225403 626.903442,269.293915 627.255493,269.362427 
	C627.255493,283.793732 627.255493,298.225067 627.255493,312.831055 
	C629.385071,312.831055 631.166443,312.831055 633.151855,312.831055 
	C633.151855,293.598511 633.151855,274.501282 633.151855,255.194946 
	C630.393250,255.194946 627.776794,255.194946 624.771790,255.194946 
	C621.416199,267.458405 618.035522,279.813629 614.654907,292.168823 
	C614.332520,292.192719 614.010193,292.216614 613.687805,292.240509 
	C610.270630,279.883545 606.853394,267.526550 603.444763,255.200378 
	C600.435486,255.200378 597.840637,255.200378 595.039734,255.200378 
	C595.039734,274.470795 595.039734,293.527039 595.039734,312.677795 
	C597.122559,312.677795 598.976135,312.677795 601.210938,312.677795 
	C601.210938,297.879181 601.210938,283.412537 601.210938,268.945923 
	C601.443726,268.917633 601.676514,268.889374 601.909302,268.861084 
	C605.019287,279.951202 608.129333,291.041351 611.548950,303.235291 
	C613.951111,302.080017 615.782166,301.199402 617.849121,299.513428 
M1111.320435,285.321320 
	C1113.607178,285.321320 1115.893921,285.321320 1118.272461,285.321320 
	C1118.272461,277.851776 1118.478760,270.904083 1118.200073,263.975891 
	C1118.014282,259.357208 1115.183716,256.045776 1110.751831,255.127594 
	C1106.945435,254.338959 1102.834351,254.122253 1098.988403,254.633575 
	C1093.196655,255.403595 1089.885132,258.872192 1089.746704,264.623108 
	C1089.434937,277.578400 1089.437500,290.553162 1089.840820,303.503571 
	C1089.921631,306.100006 1091.822144,309.180206 1093.807617,311.063324 
	C1097.833252,314.881531 1108.372681,315.103485 1113.197632,311.987000 
	C1118.800659,308.367828 1118.864624,302.844299 1118.402222,296.948059 
	C1116.163086,296.948059 1114.263550,296.948059 1112.097412,296.948059 
	C1112.097412,299.100525 1112.277466,300.939453 1112.062256,302.730896 
	C1111.507935,307.343506 1108.168335,308.536530 1104.214111,308.574951 
	C1100.292114,308.613098 1096.440063,307.585114 1096.042969,303.071869 
	C1095.530029,297.241272 1095.917847,291.331421 1095.917847,285.244781 
	C1101.098389,285.244781 1105.732178,285.244781 1111.320435,285.321320 
M818.576965,313.373230 
	C826.194641,310.803772 828.696411,305.945129 826.990112,296.995422 
	C825.100769,296.995422 823.224915,296.995422 821.094727,296.995422 
	C821.094727,299.196777 821.280945,301.038605 821.057678,302.829407 
	C820.518188,307.156616 817.385254,308.444397 813.607666,308.572968 
	C809.715881,308.705414 805.627319,307.867889 805.134644,303.449524 
	C804.472778,297.513611 804.970703,291.448425 804.970703,285.071411 
	C812.830017,285.071411 820.076721,285.071411 827.366211,285.071411 
	C827.366211,278.053589 827.535095,271.412476 827.313843,264.784424 
	C827.129944,259.273804 823.958069,255.680038 818.616882,254.799240 
	C814.934326,254.191940 810.998413,254.186905 807.310913,254.768997 
	C802.171387,255.580276 798.856812,259.077148 798.756226,264.327667 
	C798.504456,277.458160 798.510620,290.600037 798.765015,303.730530 
	C798.861938,308.739288 802.021667,312.148438 806.931274,313.063843 
	C810.447449,313.719421 814.140686,313.425751 818.576965,313.373230 
M981.182861,298.743286 
	C981.111267,297.283203 981.039673,295.823151 980.964478,294.289307 
	C978.923767,294.289307 977.170532,294.289307 975.043518,294.289307 
	C975.043518,297.000305 974.942261,299.470612 975.063049,301.929993 
	C975.388123,308.547607 978.640625,312.747681 985.085876,313.599945 
	C988.937134,314.109192 993.036316,313.659302 996.895203,312.944580 
	C1000.992798,312.185577 1003.383545,309.153320 1004.322571,305.079498 
	C1005.843140,298.482910 1003.952148,292.978210 999.070190,288.366577 
	C993.995911,283.573303 988.841187,278.851013 984.004822,273.825195 
	C980.868408,270.565857 979.878174,266.342957 982.408875,262.367188 
	C984.835388,258.555054 988.950867,258.936127 992.798462,259.809509 
	C997.397583,260.853516 997.876099,264.476685 997.821289,268.350281 
	C997.796387,270.113159 997.817078,271.876678 997.817078,273.606537 
	C1000.172485,273.606537 1001.923096,273.606537 1004.014954,273.606537 
	C1004.014954,271.205078 1004.074951,269.066681 1004.003784,266.932648 
	C1003.783936,260.342163 1001.351624,256.647644 996.181519,254.936203 
	C989.486206,252.719879 981.066101,254.337830 977.582397,258.510071 
	C974.319946,262.417328 974.063599,270.029999 977.190369,274.959320 
	C978.153748,276.478119 979.463318,277.805664 980.747009,279.087982 
	C985.685242,284.020538 990.778625,288.801636 995.618469,293.827637 
	C999.837219,298.208679 999.653198,304.894775 995.509338,307.398010 
	C988.887512,311.398041 981.489807,307.387909 981.182861,298.743286 
M518.797363,265.692780 
	C518.797363,268.322723 518.797363,270.952667 518.797363,273.670532 
	C521.038269,273.670532 522.804443,273.670532 525.016052,273.670532 
	C525.016052,271.345581 525.072876,269.217773 525.004883,267.093994 
	C524.834656,261.780914 523.316956,257.226044 517.818542,255.116287 
	C511.328888,252.626129 502.157959,254.076706 498.732513,258.418152 
	C494.923889,263.245239 495.237274,268.646484 497.691864,273.916748 
	C498.571106,275.804596 500.144836,277.440704 501.639557,278.957123 
	C506.658295,284.048767 511.898102,288.926361 516.826904,294.101440 
	C519.816284,297.240265 520.786926,301.372406 518.613586,305.138794 
	C516.137512,309.429871 511.664032,308.999115 507.441498,308.120575 
	C502.852966,307.165802 502.071930,303.757446 502.175049,299.791656 
	C502.221802,297.994110 502.182983,296.194336 502.182983,294.266205 
	C499.969086,294.266205 498.209595,294.266205 496.487579,294.266205 
	C495.276459,302.570068 496.143982,307.243896 499.408752,310.440765 
	C503.685211,314.628265 514.997620,315.411713 520.614441,311.909332 
	C525.268311,309.007385 527.304077,302.503845 524.924561,295.824707 
	C523.915710,292.992767 521.783447,290.384583 519.651306,288.165039 
	C514.818970,283.134399 509.189697,278.791534 504.869324,273.382416 
	C502.957214,270.988403 502.350769,266.372986 503.220337,263.363831 
	C503.769989,261.461823 508.029297,260.014099 510.826569,259.530731 
	C514.590393,258.880371 517.617798,260.703308 518.797363,265.692780 
M458.851562,280.944641 
	C454.693542,282.309021 452.653839,285.602417 452.302368,289.551544 
	C451.861420,294.505615 451.786499,299.573029 452.311676,304.510895 
	C452.902374,310.064758 456.714813,313.058472 462.356995,313.921234 
	C468.249817,314.822266 472.384644,311.717621 475.927094,308.187866 
	C477.340881,310.124939 478.538269,311.765503 479.735626,313.406036 
	C480.159485,313.133057 480.583313,312.860046 481.007141,312.587067 
	C481.007141,296.766113 481.254700,280.937866 480.789581,265.130615 
	C480.701050,262.122009 478.522095,258.089478 476.039948,256.457367 
	C470.461700,252.789413 463.938873,252.793503 458.019867,256.182373 
	C452.262177,259.478882 452.756805,265.154572 453.172058,270.774963 
	C455.218872,270.774963 456.968109,270.774963 459.039825,270.774963 
	C459.039825,268.906586 458.908020,267.258514 459.065460,265.638611 
	C459.475677,261.418121 462.224518,259.287842 467.091827,259.366272 
	C471.160400,259.431854 474.534058,260.832977 474.865326,265.379547 
	C475.211456,270.130188 474.942627,274.925629 474.942627,279.561707 
	C469.519318,279.990814 464.587341,280.381042 458.851562,280.944641 
M743.136169,295.331329 
	C743.135986,296.496033 743.172363,297.662048 743.129395,298.825165 
	C742.928589,304.263031 738.295959,308.583313 732.632812,308.637207 
	C727.722229,308.683960 726.072205,306.339691 726.015991,299.183380 
	C725.992493,296.188660 726.012024,293.193573 726.012024,290.198669 
	C726.012024,278.590698 726.012024,266.982727 726.012024,255.186691 
	C723.864685,255.186691 722.131287,255.186691 720.038940,255.186691 
	C720.038940,271.480927 719.882629,287.582977 720.126587,303.678955 
	C720.208313,309.072479 723.751038,312.507812 728.956360,313.687469 
	C735.361694,315.139160 740.207520,312.342651 744.245911,307.856903 
	C745.563416,309.857147 746.734863,311.635651 747.906250,313.414154 
	C748.288147,313.180847 748.669983,312.947510 749.051880,312.714203 
	C749.051880,293.554352 749.051880,274.394531 749.051880,255.257446 
	C746.994080,255.257446 745.240601,255.257446 743.136169,255.257446 
	C743.136169,268.473145 743.136169,281.423218 743.136169,295.331329 
M905.987976,283.499969 
	C905.988037,289.333191 906.048340,295.167206 905.969604,300.999359 
	C905.901978,306.002136 907.128662,310.457397 911.992371,312.652588 
	C917.187744,314.997437 922.373108,314.645660 926.992615,310.889252 
	C928.193054,309.913147 929.333496,308.863190 930.317261,308.007446 
	C931.674072,310.005951 932.816040,311.687927 933.957947,313.369873 
	C934.325134,313.174622 934.692383,312.979370 935.059570,312.784119 
	C935.059570,293.603485 935.059570,274.422852 935.059570,255.253418 
	C933.001526,255.253418 931.247681,255.253418 929.136230,255.253418 
	C929.136230,256.819946 929.136292,258.124878 929.136292,259.429840 
	C929.136047,272.596283 929.197998,285.763123 929.105225,298.928925 
	C929.067322,304.316803 924.151367,308.666168 918.502258,308.639801 
	C913.744873,308.617615 912.075378,306.318481 912.021790,299.530090 
	C911.975708,293.697205 912.012024,287.863708 912.012024,282.030487 
	C912.011963,273.083954 912.012024,264.137421 912.012024,255.279022 
	C909.715088,255.279022 907.978577,255.279022 905.987976,255.279022 
	C905.987976,264.544495 905.987976,273.522247 905.987976,283.499969 
M862.388367,284.499695 
	C862.461426,290.661896 862.226379,296.850525 862.752441,302.973816 
	C862.976318,305.579437 864.267700,308.507355 865.995056,310.483704 
	C869.596497,314.604248 880.370300,315.258087 885.792786,312.232910 
	C890.682800,309.504791 892.469604,304.262146 890.939026,297.082336 
	C889.175110,297.082336 887.407532,297.082336 885.246887,297.082336 
	C885.246887,298.818024 885.329346,300.276947 885.231812,301.723724 
	C884.911499,306.478210 882.534485,308.502319 877.267395,308.597931 
	C871.947205,308.694519 868.979370,306.454681 868.909058,301.637238 
	C868.735474,289.751831 868.704407,277.861145 868.861023,265.975769 
	C868.921875,261.360229 871.717712,259.372467 877.038818,259.401886 
	C882.294312,259.430939 884.907471,261.498871 885.169495,266.073456 
	C885.327637,268.834045 885.198669,271.611084 885.198669,274.633972 
	C887.511230,274.633972 889.273132,274.633972 891.760986,274.633972 
	C891.497864,270.399384 891.718018,266.196045 890.877930,262.216553 
	C889.572998,256.035400 881.756897,252.761063 873.065186,254.225204 
	C866.365784,255.353745 863.023193,258.708374 862.619324,265.514526 
	C862.264465,271.493225 862.444580,277.503601 862.388367,284.499695 
M1074.162598,299.493103 
	C1074.162354,288.335419 1074.247559,277.176849 1074.133179,266.020355 
	C1074.051270,258.035980 1069.443848,253.300568 1061.496704,254.213211 
	C1057.236450,254.702423 1053.234131,257.435455 1049.242554,259.102814 
	C1048.546997,258.069153 1047.378052,256.331909 1046.209106,254.594666 
	C1045.824707,254.842392 1045.440308,255.090103 1045.055908,255.337814 
	C1045.055908,274.424347 1045.055908,293.510895 1045.055908,312.656860 
	C1047.138550,312.656860 1048.995117,312.656860 1051.007080,312.656860 
	C1051.007080,310.654053 1051.007080,308.999878 1051.007080,307.345673 
	C1051.007080,294.689209 1050.956543,282.032410 1051.030884,269.376404 
	C1051.063110,263.890930 1056.341675,259.131134 1061.869751,259.358307 
	C1066.642822,259.554474 1068.079712,261.666260 1068.079468,268.635254 
	C1068.079102,277.589264 1068.033691,286.543274 1068.017822,295.497284 
	C1068.007690,301.245514 1068.015991,306.993744 1068.015991,312.709473 
	C1070.426025,312.709473 1072.165405,312.709473 1074.162598,312.709473 
	C1074.162598,308.440765 1074.162598,304.465637 1074.162598,299.493103 
M682.422729,264.264221 
	C683.127136,263.563538 683.781311,262.802032 684.544617,262.172791 
	C687.718018,259.556549 691.699341,257.844543 695.028137,260.369110 
	C696.994629,261.860504 697.827881,265.741455 697.950684,268.600220 
	C698.313538,277.046844 698.067383,285.519562 698.063110,293.982056 
	C698.059937,300.232117 698.062500,306.482178 698.062500,312.712158 
	C700.419678,312.712158 702.159912,312.712158 704.153870,312.712158 
	C704.153870,296.611420 704.282776,280.801178 704.092773,264.994781 
	C704.012634,258.328461 699.675110,253.721817 692.950378,254.241592 
	C688.220337,254.607193 683.665955,257.246063 679.070068,258.856903 
	C678.532776,258.064697 677.365662,256.343842 676.198486,254.622986 
	C675.828369,254.878281 675.458191,255.133560 675.088013,255.388855 
	C675.088013,274.481171 675.088013,293.573486 675.088013,312.811340 
	C677.088745,312.811340 678.837891,312.811340 681.007141,312.811340 
	C681.007141,298.830231 680.964417,285.039612 681.052734,271.249817 
	C681.066101,269.156586 681.687927,267.067261 682.422729,264.264221 
M540.993591,273.500641 
	C540.994446,283.493347 540.876953,293.487946 541.039917,303.478027 
	C541.139893,309.606476 544.990845,313.453400 550.921326,313.925018 
	C557.008911,314.409149 561.930176,311.226532 562.639893,305.585938 
	C563.188171,301.228241 562.749268,296.746368 562.749268,292.099457 
	C560.570312,292.194977 558.823669,292.271545 556.835022,292.358734 
	C556.835022,295.951111 556.944275,299.105865 556.804321,302.249542 
	C556.664673,305.384644 556.006165,308.537994 552.011414,308.554718 
	C548.112061,308.571045 547.104614,305.660583 547.054565,302.384552 
	C546.970764,296.889954 547.010620,291.393402 547.007629,285.897675 
	C547.003113,277.462372 547.006409,269.027069 547.006409,260.212585 
	C551.688477,260.212585 555.784302,260.212585 560.205933,260.212585 
	C560.089478,258.254944 559.997559,256.710022 559.912964,255.288803 
	C553.391174,255.288803 547.311646,255.288803 540.993591,255.288803 
	C540.993591,261.221100 540.993591,266.861206 540.993591,273.500641 
M765.993591,276.500122 
	C765.994446,285.493530 765.872131,294.489197 766.038879,303.479523 
	C766.152466,309.607025 769.992859,313.454315 775.922852,313.925232 
	C782.009888,314.408569 786.930786,311.225006 787.640076,305.584442 
	C788.188110,301.226807 787.749451,296.745117 787.749451,292.099335 
	C785.569336,292.194916 783.822571,292.271515 781.835022,292.358673 
	C781.835022,295.952271 781.944458,299.107208 781.804260,302.250977 
	C781.664429,305.386139 781.004883,308.539185 777.010071,308.554779 
	C773.110657,308.569977 772.102722,305.658905 772.054626,302.383209 
	C771.971436,296.722046 772.010742,291.058990 772.007629,285.396729 
	C772.003052,277.128113 772.006409,268.859528 772.006409,260.211578 
	C776.692810,260.211578 780.786133,260.211578 785.206665,260.211578 
	C785.089600,258.253876 784.997253,256.709106 784.912415,255.289215 
	C778.390137,255.289215 772.310669,255.289215 765.993591,255.289215 
	C765.993591,262.222076 765.993591,268.861145 765.993591,276.500122 
M430.746765,307.740692 
	C428.165039,308.138275 426.843323,307.537476 426.927521,304.418854 
	C427.142700,296.450012 426.999023,288.471497 426.998962,280.496826 
	C426.998901,272.076599 426.998962,263.656403 426.998962,255.238235 
	C424.711182,255.238235 422.963654,255.238235 421.046051,255.238235 
	C421.046051,274.497803 421.046051,293.521118 421.046051,312.693207 
	C428.444397,312.693207 435.641418,312.693207 442.754395,312.693207 
	C442.754395,310.950073 442.754395,309.526337 442.754395,307.799835 
	C438.911194,307.799835 435.303223,307.799835 430.746765,307.740692 
M1020.848083,292.499817 
	C1020.848083,299.251038 1020.848083,306.002289 1020.848083,312.762604 
	C1023.169128,312.762604 1024.911743,312.762604 1026.636841,312.762604 
	C1026.636841,293.379211 1026.636841,274.233368 1026.636841,254.928436 
	C1024.515259,255.038010 1022.766052,255.128357 1020.848083,255.227417 
	C1020.848083,267.606384 1020.848083,279.553131 1020.848083,292.499817 
M952.848083,305.441742 
	C952.848083,307.874268 952.848083,310.306793 952.848083,312.767761 
	C955.159363,312.767761 956.902161,312.767761 958.639526,312.767761 
	C958.639526,293.386353 958.639526,274.237274 958.639526,254.928940 
	C956.520020,255.038376 954.770142,255.128723 952.848083,255.227982 
	C952.848083,271.923981 952.848083,288.191528 952.848083,305.441742 
M656.999023,279.500000 
	C656.999023,271.412903 656.999023,263.325806 656.999023,255.236816 
	C654.713440,255.236816 652.966125,255.236816 651.216736,255.236816 
	C651.216736,274.620117 651.216736,293.766357 651.216736,313.076477 
	C653.339844,312.958252 655.083618,312.861145 656.999023,312.754486 
	C656.999023,301.731842 656.999023,291.115906 656.999023,279.500000 
z"/>
<path fill="#242124" opacity="1.000000" stroke="none" 
	d="
M173.857819,308.999939 
	C173.857819,263.867096 173.857819,219.234268 173.857819,174.229706 
	C180.189056,174.229706 186.379089,174.229706 192.783478,174.229706 
	C192.783478,244.350510 192.783478,314.402710 192.783478,384.723755 
	C186.624146,384.723755 180.548950,384.723755 173.857819,384.723755 
	C173.857819,359.649841 173.857819,334.574890 173.857819,308.999939 
z"/>
<path fill="#242124" opacity="1.000000" stroke="none" 
	d="
M1364.141968,260.000061 
	C1364.141968,301.792969 1364.141968,343.085876 1364.141968,384.685425 
	C1357.858765,384.685425 1351.770752,384.685425 1345.343262,384.685425 
	C1345.343262,314.660126 1345.343262,244.490555 1345.343262,174.089142 
	C1351.475098,174.089142 1357.545410,174.089142 1364.141968,174.089142 
	C1364.141968,202.649780 1364.141968,231.074921 1364.141968,260.000061 
z"/>
<path fill="#F3F0EC" opacity="1.000000" stroke="none" 
	d="
M617.731201,299.916107 
	C615.782166,301.199402 613.951111,302.080017 611.548950,303.235291 
	C608.129333,291.041351 605.019287,279.951202 601.909302,268.861084 
	C601.676514,268.889374 601.443726,268.917633 601.210938,268.945923 
	C601.210938,283.412537 601.210938,297.879181 601.210938,312.677795 
	C598.976135,312.677795 597.122559,312.677795 595.039734,312.677795 
	C595.039734,293.527039 595.039734,274.470795 595.039734,255.200378 
	C597.840637,255.200378 600.435486,255.200378 603.444763,255.200378 
	C606.853394,267.526550 610.270630,279.883545 613.687805,292.240509 
	C614.010193,292.216614 614.332520,292.192719 614.654907,292.168823 
	C618.035522,279.813629 621.416199,267.458405 624.771790,255.194946 
	C627.776794,255.194946 630.393250,255.194946 633.151855,255.194946 
	C633.151855,274.501282 633.151855,293.598511 633.151855,312.831055 
	C631.166443,312.831055 629.385071,312.831055 627.255493,312.831055 
	C627.255493,298.225067 627.255493,283.793732 627.255493,269.362427 
	C626.903442,269.293915 626.551453,269.225403 626.199402,269.156921 
	C623.415955,279.275757 620.632507,289.394592 617.731201,299.916107 
z"/>
<path fill="#EAE8E4" opacity="1.000000" stroke="none" 
	d="
M1110.843262,285.283051 
	C1105.732178,285.244781 1101.098389,285.244781 1095.917847,285.244781 
	C1095.917847,291.331421 1095.530029,297.241272 1096.042969,303.071869 
	C1096.440063,307.585114 1100.292114,308.613098 1104.214111,308.574951 
	C1108.168335,308.536530 1111.507935,307.343506 1112.062256,302.730896 
	C1112.277466,300.939453 1112.097412,299.100525 1112.097412,296.948059 
	C1114.263550,296.948059 1116.163086,296.948059 1118.402222,296.948059 
	C1118.864624,302.844299 1118.800659,308.367828 1113.197632,311.987000 
	C1108.372681,315.103485 1097.833252,314.881531 1093.807617,311.063324 
	C1091.822144,309.180206 1089.921631,306.100006 1089.840820,303.503571 
	C1089.437500,290.553162 1089.434937,277.578400 1089.746704,264.623108 
	C1089.885132,258.872192 1093.196655,255.403595 1098.988403,254.633575 
	C1102.834351,254.122253 1106.945435,254.338959 1110.751831,255.127594 
	C1115.183716,256.045776 1118.014282,259.357208 1118.200073,263.975891 
	C1118.478760,270.904083 1118.272461,277.851776 1118.272461,285.321320 
	C1115.893921,285.321320 1113.607178,285.321320 1110.843262,285.283051 
M1103.549316,259.389252 
	C1099.903320,259.711029 1096.250732,260.360077 1095.965332,264.913483 
	C1095.659424,269.794861 1095.896362,274.710327 1095.896362,279.634735 
	C1101.573608,279.634735 1106.799438,279.634735 1112.210693,279.634735 
	C1112.210693,275.512848 1112.248535,271.723083 1112.202148,267.934326 
	C1112.123413,261.516937 1111.124146,260.442566 1103.549316,259.389252 
z"/>
<path fill="#EAE8E4" opacity="1.000000" stroke="none" 
	d="
M818.165894,313.464417 
	C814.140686,313.425751 810.447449,313.719421 806.931274,313.063843 
	C802.021667,312.148438 798.861938,308.739288 798.765015,303.730530 
	C798.510620,290.600037 798.504456,277.458160 798.756226,264.327667 
	C798.856812,259.077148 802.171387,255.580276 807.310913,254.768997 
	C810.998413,254.186905 814.934326,254.191940 818.616882,254.799240 
	C823.958069,255.680038 827.129944,259.273804 827.313843,264.784424 
	C827.535095,271.412476 827.366211,278.053589 827.366211,285.071411 
	C820.076721,285.071411 812.830017,285.071411 804.970703,285.071411 
	C804.970703,291.448425 804.472778,297.513611 805.134644,303.449524 
	C805.627319,307.867889 809.715881,308.705414 813.607666,308.572968 
	C817.385254,308.444397 820.518188,307.156616 821.057678,302.829407 
	C821.280945,301.038605 821.094727,299.196777 821.094727,296.995422 
	C823.224915,296.995422 825.100769,296.995422 826.990112,296.995422 
	C828.696411,305.945129 826.194641,310.803772 818.165894,313.464417 
M811.670654,259.409973 
	C808.161316,259.933411 805.007874,260.994629 804.890198,265.288696 
	C804.760132,270.032928 804.860474,274.783478 804.860474,279.671936 
	C810.480042,279.671936 815.703796,279.671936 821.267639,279.671936 
	C821.267639,275.767670 821.289062,272.156616 821.263062,268.545929 
	C821.210938,261.301086 820.001770,260.041504 811.670654,259.409973 
z"/>
<path fill="#EFEDE9" opacity="1.000000" stroke="none" 
	d="
M981.182861,299.187622 
	C981.489807,307.387909 988.887512,311.398041 995.509338,307.398010 
	C999.653198,304.894775 999.837219,298.208679 995.618469,293.827637 
	C990.778625,288.801636 985.685242,284.020538 980.747009,279.087982 
	C979.463318,277.805664 978.153748,276.478119 977.190369,274.959320 
	C974.063599,270.029999 974.319946,262.417328 977.582397,258.510071 
	C981.066101,254.337830 989.486206,252.719879 996.181519,254.936203 
	C1001.351624,256.647644 1003.783936,260.342163 1004.003784,266.932648 
	C1004.074951,269.066681 1004.014954,271.205078 1004.014954,273.606537 
	C1001.923096,273.606537 1000.172485,273.606537 997.817078,273.606537 
	C997.817078,271.876678 997.796387,270.113159 997.821289,268.350281 
	C997.876099,264.476685 997.397583,260.853516 992.798462,259.809509 
	C988.950867,258.936127 984.835388,258.555054 982.408875,262.367188 
	C979.878174,266.342957 980.868408,270.565857 984.004822,273.825195 
	C988.841187,278.851013 993.995911,283.573303 999.070190,288.366577 
	C1003.952148,292.978210 1005.843140,298.482910 1004.322571,305.079498 
	C1003.383545,309.153320 1000.992798,312.185577 996.895203,312.944580 
	C993.036316,313.659302 988.937134,314.109192 985.085876,313.599945 
	C978.640625,312.747681 975.388123,308.547607 975.063049,301.929993 
	C974.942261,299.470612 975.043518,297.000305 975.043518,294.289307 
	C977.170532,294.289307 978.923767,294.289307 980.964478,294.289307 
	C981.039673,295.823151 981.111267,297.283203 981.182861,299.187622 
z"/>
<path fill="#EFEDE9" opacity="1.000000" stroke="none" 
	d="
M518.727051,265.246521 
	C517.617798,260.703308 514.590393,258.880371 510.826569,259.530731 
	C508.029297,260.014099 503.769989,261.461823 503.220337,263.363831 
	C502.350769,266.372986 502.957214,270.988403 504.869324,273.382416 
	C509.189697,278.791534 514.818970,283.134399 519.651306,288.165039 
	C521.783447,290.384583 523.915710,292.992767 524.924561,295.824707 
	C527.304077,302.503845 525.268311,309.007385 520.614441,311.909332 
	C514.997620,315.411713 503.685211,314.628265 499.408752,310.440765 
	C496.143982,307.243896 495.276459,302.570068 496.487579,294.266205 
	C498.209595,294.266205 499.969086,294.266205 502.182983,294.266205 
	C502.182983,296.194336 502.221802,297.994110 502.175049,299.791656 
	C502.071930,303.757446 502.852966,307.165802 507.441498,308.120575 
	C511.664032,308.999115 516.137512,309.429871 518.613586,305.138794 
	C520.786926,301.372406 519.816284,297.240265 516.826904,294.101440 
	C511.898102,288.926361 506.658295,284.048767 501.639557,278.957123 
	C500.144836,277.440704 498.571106,275.804596 497.691864,273.916748 
	C495.237274,268.646484 494.923889,263.245239 498.732513,258.418152 
	C502.157959,254.076706 511.328888,252.626129 517.818542,255.116287 
	C523.316956,257.226044 524.834656,261.780914 525.004883,267.093994 
	C525.072876,269.217773 525.016052,271.345581 525.016052,273.670532 
	C522.804443,273.670532 521.038269,273.670532 518.797363,273.670532 
	C518.797363,270.952667 518.797363,268.322723 518.727051,265.246521 
z"/>
<path fill="#F4F1ED" opacity="1.000000" stroke="none" 
	d="
M459.253448,280.857971 
	C464.587341,280.381042 469.519318,279.990814 474.942627,279.561707 
	C474.942627,274.925629 475.211456,270.130188 474.865326,265.379547 
	C474.534058,260.832977 471.160400,259.431854 467.091827,259.366272 
	C462.224518,259.287842 459.475677,261.418121 459.065460,265.638611 
	C458.908020,267.258514 459.039825,268.906586 459.039825,270.774963 
	C456.968109,270.774963 455.218872,270.774963 453.172058,270.774963 
	C452.756805,265.154572 452.262177,259.478882 458.019867,256.182373 
	C463.938873,252.793503 470.461700,252.789413 476.039948,256.457367 
	C478.522095,258.089478 480.701050,262.122009 480.789581,265.130615 
	C481.254700,280.937866 481.007141,296.766113 481.007141,312.587067 
	C480.583313,312.860046 480.159485,313.133057 479.735626,313.406036 
	C478.538269,311.765503 477.340881,310.124939 475.927094,308.187866 
	C472.384644,311.717621 468.249817,314.822266 462.356995,313.921234 
	C456.714813,313.058472 452.902374,310.064758 452.311676,304.510895 
	C451.786499,299.573029 451.861420,294.505615 452.302368,289.551544 
	C452.653839,285.602417 454.693542,282.309021 459.253448,280.857971 
M467.665985,285.194733 
	C459.376038,285.410156 458.163361,286.620544 458.156830,294.810455 
	C458.154572,297.630035 458.061310,300.468292 458.343079,303.264374 
	C458.659912,306.408691 460.401276,308.401123 463.786530,308.669495 
	C468.688232,309.058044 474.486633,304.773407 474.860565,299.893036 
	C475.223053,295.162079 474.939209,290.381561 474.939209,285.275818 
	C472.475220,285.275818 470.525085,285.275818 467.665985,285.194733 
z"/>
<path fill="#F4F1ED" opacity="1.000000" stroke="none" 
	d="
M743.136169,294.852295 
	C743.136169,281.423218 743.136169,268.473145 743.136169,255.257446 
	C745.240601,255.257446 746.994080,255.257446 749.051880,255.257446 
	C749.051880,274.394531 749.051880,293.554352 749.051880,312.714203 
	C748.669983,312.947510 748.288147,313.180847 747.906250,313.414154 
	C746.734863,311.635651 745.563416,309.857147 744.245911,307.856903 
	C740.207520,312.342651 735.361694,315.139160 728.956360,313.687469 
	C723.751038,312.507812 720.208313,309.072479 720.126587,303.678955 
	C719.882629,287.582977 720.038940,271.480927 720.038940,255.186691 
	C722.131287,255.186691 723.864685,255.186691 726.012024,255.186691 
	C726.012024,266.982727 726.012024,278.590698 726.012024,290.198669 
	C726.012024,293.193573 725.992493,296.188660 726.015991,299.183380 
	C726.072205,306.339691 727.722229,308.683960 732.632812,308.637207 
	C738.295959,308.583313 742.928589,304.263031 743.129395,298.825165 
	C743.172363,297.662048 743.135986,296.496033 743.136169,294.852295 
z"/>
<path fill="#F4F1ED" opacity="1.000000" stroke="none" 
	d="
M905.987976,283.000000 
	C905.987976,273.522247 905.987976,264.544495 905.987976,255.279022 
	C907.978577,255.279022 909.715088,255.279022 912.012024,255.279022 
	C912.012024,264.137421 912.011963,273.083954 912.012024,282.030487 
	C912.012024,287.863708 911.975708,293.697205 912.021790,299.530090 
	C912.075378,306.318481 913.744873,308.617615 918.502258,308.639801 
	C924.151367,308.666168 929.067322,304.316803 929.105225,298.928925 
	C929.197998,285.763123 929.136047,272.596283 929.136292,259.429840 
	C929.136292,258.124878 929.136230,256.819946 929.136230,255.253418 
	C931.247681,255.253418 933.001526,255.253418 935.059570,255.253418 
	C935.059570,274.422852 935.059570,293.603485 935.059570,312.784119 
	C934.692383,312.979370 934.325134,313.174622 933.957947,313.369873 
	C932.816040,311.687927 931.674072,310.005951 930.317261,308.007446 
	C929.333496,308.863190 928.193054,309.913147 926.992615,310.889252 
	C922.373108,314.645660 917.187744,314.997437 911.992371,312.652588 
	C907.128662,310.457397 905.901978,306.002136 905.969604,300.999359 
	C906.048340,295.167206 905.988037,289.333191 905.987976,283.000000 
z"/>
<path fill="#E8E6E2" opacity="1.000000" stroke="none" 
	d="
M862.388428,283.999847 
	C862.444580,277.503601 862.264465,271.493225 862.619324,265.514526 
	C863.023193,258.708374 866.365784,255.353745 873.065186,254.225204 
	C881.756897,252.761063 889.572998,256.035400 890.877930,262.216553 
	C891.718018,266.196045 891.497864,270.399384 891.760986,274.633972 
	C889.273132,274.633972 887.511230,274.633972 885.198669,274.633972 
	C885.198669,271.611084 885.327637,268.834045 885.169495,266.073456 
	C884.907471,261.498871 882.294312,259.430939 877.038818,259.401886 
	C871.717712,259.372467 868.921875,261.360229 868.861023,265.975769 
	C868.704407,277.861145 868.735474,289.751831 868.909058,301.637238 
	C868.979370,306.454681 871.947205,308.694519 877.267395,308.597931 
	C882.534485,308.502319 884.911499,306.478210 885.231812,301.723724 
	C885.329346,300.276947 885.246887,298.818024 885.246887,297.082336 
	C887.407532,297.082336 889.175110,297.082336 890.939026,297.082336 
	C892.469604,304.262146 890.682800,309.504791 885.792786,312.232910 
	C880.370300,315.258087 869.596497,314.604248 865.995056,310.483704 
	C864.267700,308.507355 862.976318,305.579437 862.752441,302.973816 
	C862.226379,296.850525 862.461426,290.661896 862.388428,283.999847 
z"/>
<path fill="#F6F3EF" opacity="1.000000" stroke="none" 
	d="
M1074.162598,299.991821 
	C1074.162598,304.465637 1074.162598,308.440765 1074.162598,312.709473 
	C1072.165405,312.709473 1070.426025,312.709473 1068.015991,312.709473 
	C1068.015991,306.993744 1068.007690,301.245514 1068.017822,295.497284 
	C1068.033691,286.543274 1068.079102,277.589264 1068.079468,268.635254 
	C1068.079712,261.666260 1066.642822,259.554474 1061.869751,259.358307 
	C1056.341675,259.131134 1051.063110,263.890930 1051.030884,269.376404 
	C1050.956543,282.032410 1051.007080,294.689209 1051.007080,307.345673 
	C1051.007080,308.999878 1051.007080,310.654053 1051.007080,312.656860 
	C1048.995117,312.656860 1047.138550,312.656860 1045.055908,312.656860 
	C1045.055908,293.510895 1045.055908,274.424347 1045.055908,255.337814 
	C1045.440308,255.090103 1045.824707,254.842392 1046.209106,254.594666 
	C1047.378052,256.331909 1048.546997,258.069153 1049.242554,259.102814 
	C1053.234131,257.435455 1057.236450,254.702423 1061.496704,254.213211 
	C1069.443848,253.300568 1074.051270,258.035980 1074.133179,266.020355 
	C1074.247559,277.176849 1074.162354,288.335419 1074.162598,299.991821 
z"/>
<path fill="#F6F3EF" opacity="1.000000" stroke="none" 
	d="
M682.225464,264.620178 
	C681.687927,267.067261 681.066101,269.156586 681.052734,271.249817 
	C680.964417,285.039612 681.007141,298.830231 681.007141,312.811340 
	C678.837891,312.811340 677.088745,312.811340 675.088013,312.811340 
	C675.088013,293.573486 675.088013,274.481171 675.088013,255.388855 
	C675.458191,255.133560 675.828369,254.878281 676.198486,254.622986 
	C677.365662,256.343842 678.532776,258.064697 679.070068,258.856903 
	C683.665955,257.246063 688.220337,254.607193 692.950378,254.241592 
	C699.675110,253.721817 704.012634,258.328461 704.092773,264.994781 
	C704.282776,280.801178 704.153870,296.611420 704.153870,312.712158 
	C702.159912,312.712158 700.419678,312.712158 698.062500,312.712158 
	C698.062500,306.482178 698.059937,300.232117 698.063110,293.982056 
	C698.067383,285.519562 698.313538,277.046844 697.950684,268.600220 
	C697.827881,265.741455 696.994629,261.860504 695.028137,260.369110 
	C691.699341,257.844543 687.718018,259.556549 684.544617,262.172791 
	C683.781311,262.802032 683.127136,263.563538 682.225464,264.620178 
z"/>
<path fill="#F7F4EF" opacity="1.000000" stroke="none" 
	d="
M540.993591,273.000977 
	C540.993591,266.861206 540.993591,261.221100 540.993591,255.288803 
	C547.311646,255.288803 553.391174,255.288803 559.912964,255.288803 
	C559.997559,256.710022 560.089478,258.254944 560.205933,260.212585 
	C555.784302,260.212585 551.688477,260.212585 547.006409,260.212585 
	C547.006409,269.027069 547.003113,277.462372 547.007629,285.897675 
	C547.010620,291.393402 546.970764,296.889954 547.054565,302.384552 
	C547.104614,305.660583 548.112061,308.571045 552.011414,308.554718 
	C556.006165,308.537994 556.664673,305.384644 556.804321,302.249542 
	C556.944275,299.105865 556.835022,295.951111 556.835022,292.358734 
	C558.823669,292.271545 560.570312,292.194977 562.749268,292.099457 
	C562.749268,296.746368 563.188171,301.228241 562.639893,305.585938 
	C561.930176,311.226532 557.008911,314.409149 550.921326,313.925018 
	C544.990845,313.453400 541.139893,309.606476 541.039917,303.478027 
	C540.876953,293.487946 540.994446,283.493347 540.993591,273.000977 
z"/>
<path fill="#F7F4EF" opacity="1.000000" stroke="none" 
	d="
M765.993591,276.000153 
	C765.993591,268.861145 765.993591,262.222076 765.993591,255.289215 
	C772.310669,255.289215 778.390137,255.289215 784.912415,255.289215 
	C784.997253,256.709106 785.089600,258.253876 785.206665,260.211578 
	C780.786133,260.211578 776.692810,260.211578 772.006409,260.211578 
	C772.006409,268.859528 772.003052,277.128113 772.007629,285.396729 
	C772.010742,291.058990 771.971436,296.722046 772.054626,302.383209 
	C772.102722,305.658905 773.110657,308.569977 777.010071,308.554779 
	C781.004883,308.539185 781.664429,305.386139 781.804260,302.250977 
	C781.944458,299.107208 781.835022,295.952271 781.835022,292.358673 
	C783.822571,292.271515 785.569336,292.194916 787.749451,292.099335 
	C787.749451,296.745117 788.188110,301.226807 787.640076,305.584442 
	C786.930786,311.225006 782.009888,314.408569 775.922852,313.925232 
	C769.992859,313.454315 766.152466,309.607025 766.038879,303.479523 
	C765.872131,294.489197 765.994446,285.493530 765.993591,276.000153 
z"/>
<path fill="#FAF7F2" opacity="1.000000" stroke="none" 
	d="
M431.221008,307.770264 
	C435.303223,307.799835 438.911194,307.799835 442.754395,307.799835 
	C442.754395,309.526337 442.754395,310.950073 442.754395,312.693207 
	C435.641418,312.693207 428.444397,312.693207 421.046051,312.693207 
	C421.046051,293.521118 421.046051,274.497803 421.046051,255.238235 
	C422.963654,255.238235 424.711182,255.238235 426.998962,255.238235 
	C426.998962,263.656403 426.998901,272.076599 426.998962,280.496826 
	C426.999023,288.471497 427.142700,296.450012 426.927521,304.418854 
	C426.843323,307.537476 428.165039,308.138275 431.221008,307.770264 
z"/>
<path fill="#FAF7F2" opacity="1.000000" stroke="none" 
	d="
M1020.848083,291.999817 
	C1020.848083,279.553131 1020.848083,267.606384 1020.848083,255.227417 
	C1022.766052,255.128357 1024.515259,255.038010 1026.636841,254.928436 
	C1026.636841,274.233368 1026.636841,293.379211 1026.636841,312.762604 
	C1024.911743,312.762604 1023.169128,312.762604 1020.848083,312.762604 
	C1020.848083,306.002289 1020.848083,299.251038 1020.848083,291.999817 
z"/>
<path fill="#FAF7F2" opacity="1.000000" stroke="none" 
	d="
M952.848083,304.950409 
	C952.848083,288.191528 952.848083,271.923981 952.848083,255.227982 
	C954.770142,255.128723 956.520020,255.038376 958.639526,254.928940 
	C958.639526,274.237274 958.639526,293.386353 958.639526,312.767761 
	C956.902161,312.767761 955.159363,312.767761 952.848083,312.767761 
	C952.848083,310.306793 952.848083,307.874268 952.848083,304.950409 
z"/>
<path fill="#FAF7F2" opacity="1.000000" stroke="none" 
	d="
M656.999023,280.000000 
	C656.999023,291.115906 656.999023,301.731842 656.999023,312.754486 
	C655.083618,312.861145 653.339844,312.958252 651.216736,313.076477 
	C651.216736,293.766357 651.216736,274.620117 651.216736,255.236816 
	C652.966125,255.236816 654.713440,255.236816 656.999023,255.236816 
	C656.999023,263.325806 656.999023,271.412903 656.999023,280.000000 
z"/>
<path fill="#181E30" opacity="1.000000" stroke="none" 
	d="
M1103.995972,259.389191 
	C1111.124146,260.442566 1112.123413,261.516937 1112.202148,267.934326 
	C1112.248535,271.723083 1112.210693,275.512848 1112.210693,279.634735 
	C1106.799438,279.634735 1101.573608,279.634735 1095.896362,279.634735 
	C1095.896362,274.710327 1095.659424,269.794861 1095.965332,264.913483 
	C1096.250732,260.360077 1099.903320,259.711029 1103.995972,259.389191 
z"/>
<path fill="#181E30" opacity="1.000000" stroke="none" 
	d="
M812.113098,259.399536 
	C820.001770,260.041504 821.210938,261.301086 821.263062,268.545929 
	C821.289062,272.156616 821.267639,275.767670 821.267639,279.671936 
	C815.703796,279.671936 810.480042,279.671936 804.860474,279.671936 
	C804.860474,274.783478 804.760132,270.032928 804.890198,265.288696 
	C805.007874,260.994629 808.161316,259.933411 812.113098,259.399536 
z"/>
<path fill="#1E2335" opacity="1.000000" stroke="none" 
	d="
M468.120483,285.235291 
	C470.525085,285.275818 472.475220,285.275818 474.939209,285.275818 
	C474.939209,290.381561 475.223053,295.162079 474.860565,299.893036 
	C474.486633,304.773407 468.688232,309.058044 463.786530,308.669495 
	C460.401276,308.401123 458.659912,306.408691 458.343079,303.264374 
	C458.061310,300.468292 458.154572,297.630035 458.156830,294.810455 
	C458.163361,286.620544 459.376038,285.410156 468.120483,285.235291 
z"/>
</svg>