<svg version="1.1" id="Layer_1" xmlns="http://www.w3.org/2000/svg" xmlns:xlink="http://www.w3.org/1999/xlink" x="0px" y="0px"
	 width="100%" viewBox="0 0 1200 1200" enable-background="new 0 0 1200 1200" xml:space="preserve">
<path fill="#242124" opacity="1.000000" stroke="none" 
	d="
M532.000000,1201.000000 
	C354.666656,1201.000000 177.833328,1201.000000 1.000000,1201.000000 
	C1.000000,801.000000 1.000000,401.000000 1.000000,1.000000 
	C401.000000,1.000000 801.000000,1.000000 1201.000000,1.000000 
	C1201.000000,401.000000 1201.000000,801.000000 1201.000000,1201.000000 
	C978.166687,1201.000000 755.333313,1201.000000 532.000000,1201.000000 
M121.000000,577.500000 
	C121.000000,590.257385 121.000000,603.014771 121.000000,615.613525 
	C441.409119,615.613525 761.124268,615.613525 1080.741455,615.613525 
	C1080.741455,550.623108 1080.741455,486.019531 1080.741455,421.298187 
	C760.767700,421.298187 441.052643,421.298187 121.000000,421.298187 
	C121.000000,473.230438 121.000000,524.865234 121.000000,577.500000 
M544.989197,798.512329 
	C556.424438,806.661255 568.689026,811.674500 583.208191,811.141479 
	C599.843689,810.530823 616.519714,811.090942 633.175964,810.924011 
	C636.540588,810.890259 640.004700,810.240723 643.236267,809.260071 
	C658.605469,804.596497 670.974854,795.359070 680.473877,782.675842 
	C684.281128,777.592346 687.347046,771.373352 688.750916,765.215393 
	C690.553772,757.307190 690.203491,748.925293 691.053467,740.775940 
	C691.545654,736.057495 689.748962,734.888855 685.162476,734.902710 
	C634.023254,735.056885 582.883301,734.988220 531.743591,735.007141 
	C516.295166,735.012817 517.997620,733.308289 518.012695,748.908264 
	C518.033020,769.983398 528.467285,785.517395 544.989197,798.512329 
M803.500000,646.000000 
	C781.080444,646.000000 758.660950,646.000000 736.392334,646.000000 
	C736.392334,651.417236 736.392334,656.145142 736.392334,660.746338 
	C791.382019,660.746338 845.979065,660.746338 900.696533,660.746338 
	C900.696533,655.766357 900.696533,651.044739 900.696533,646.000000 
	C868.429443,646.000000 836.464722,646.000000 803.500000,646.000000 
M435.500000,646.000000 
	C390.751343,646.000000 346.002655,646.000000 301.387268,646.000000 
	C301.387268,651.406433 301.387268,656.133667 301.387268,660.751343 
	C356.371887,660.751343 410.968933,660.751343 465.701599,660.751343 
	C465.701599,655.776794 465.701599,651.055115 465.701599,646.000000 
	C455.770813,646.000000 446.135406,646.000000 435.500000,646.000000 
M658.324646,685.999939 
	C666.242126,686.332947 674.157715,686.852722 682.077820,686.935547 
	C687.667114,686.994080 690.153870,682.726013 686.913513,678.520874 
	C685.732788,676.988647 682.811401,676.118042 680.676697,676.104309 
	C655.556702,675.942139 630.435242,676.000061 605.314209,676.000122 
	C604.023865,676.000122 602.733521,676.000183 601.245605,676.000183 
	C601.245605,678.858704 601.245605,681.261658 601.245605,683.740601 
	C603.694641,684.187256 605.915344,684.894287 608.152832,684.951965 
	C624.552673,685.374390 640.955872,685.666687 658.324646,685.999939 
M630.699402,652.011292 
	C620.908569,653.526306 611.117798,655.041260 601.273499,656.564514 
	C601.273499,659.332764 601.273499,662.084717 601.273499,664.932007 
	C612.405762,663.601440 623.248413,662.225891 634.110535,661.026245 
	C649.877380,659.284851 665.645386,657.528992 681.442078,656.101379 
	C685.405701,655.743164 687.262939,654.461060 687.013123,650.424866 
	C686.753540,646.231384 684.309204,644.595276 680.477112,645.046936 
	C674.982361,645.694519 669.529114,646.686646 664.048706,647.465271 
	C653.236450,649.001465 642.417725,650.492065 630.699402,652.011292 
M528.020813,677.607666 
	C528.110657,679.017090 528.200500,680.426514 528.300781,682.000000 
	C531.076904,682.000000 533.398376,681.999939 535.719849,682.000000 
	C549.000000,682.000122 549.000000,682.000122 549.000000,695.322449 
	C549.000000,707.099182 549.000000,718.875854 549.000000,730.679565 
	C551.939392,730.679565 554.327454,730.679565 557.000000,730.679565 
	C557.000000,715.557861 557.000244,700.754028 556.999878,685.950256 
	C556.999634,677.787231 557.185486,669.616028 556.830994,661.468384 
	C556.764282,659.934998 554.540894,658.495483 553.312622,657.012695 
	C551.877136,658.288940 550.295410,659.443115 549.078369,660.901672 
	C548.592834,661.483521 548.912964,662.737671 548.852783,663.960144 
	C543.372986,664.669373 538.214294,665.406799 533.037659,665.983337 
	C529.410889,666.387268 528.231873,668.172546 529.543884,672.153870 
	C535.868835,671.582214 542.268677,671.003784 548.686157,670.423767 
	C548.686157,672.278381 548.686157,674.003845 548.686157,675.629578 
	C541.630554,675.990356 534.889099,676.335083 528.020813,677.607666 
M587.002747,663.358215 
	C588.204224,664.673218 589.405640,665.988220 590.840088,667.558228 
	C590.840088,669.834473 590.840088,672.631775 590.840088,675.614136 
	C589.531677,675.895142 588.333191,676.152466 587.195679,676.396790 
	C587.195679,679.004272 587.195679,681.286560 587.195679,682.421143 
	C588.926514,684.181396 590.030273,685.176331 590.979980,686.301270 
	C592.226196,687.777344 593.351074,689.355896 594.528076,690.890381 
	C595.848083,689.590576 597.412292,688.450012 598.400391,686.933899 
	C599.037659,685.956177 598.971985,684.428101 598.977661,683.145630 
	C599.019714,673.683472 599.074036,664.219971 598.937866,654.759583 
	C598.910828,652.881226 598.394409,650.841187 597.497009,649.209351 
	C596.986755,648.281555 594.989929,647.325134 594.121887,647.641541 
	C592.866638,648.099121 591.455444,649.559814 591.142761,650.843811 
	C590.648926,652.871887 591.011353,655.108521 591.011353,657.256836 
	C590.498535,657.112244 589.985657,656.967651 589.472839,656.822998 
	C588.648743,658.697632 587.824646,660.572266 587.002747,663.358215 
M576.902100,675.112061 
	C575.632568,675.651672 574.363037,676.191223 573.232849,676.671631 
	C573.232849,678.752991 573.232849,680.699829 573.232849,683.154480 
	C577.249268,681.910583 576.728455,684.447632 577.172546,686.885681 
	C577.448914,688.403076 579.364868,689.621765 580.544983,690.974548 
	C581.695251,689.594360 583.811096,688.236450 583.843445,686.830566 
	C584.111206,675.210388 584.092590,663.579346 583.852966,651.957947 
	C583.826050,650.653381 581.886536,649.388245 580.833984,648.104858 
	C579.558777,649.377319 577.579712,650.459351 577.172058,651.966492 
	C576.548340,654.272156 577.008423,656.871033 577.008423,659.584106 
	C575.605652,659.875916 574.405945,660.125427 573.172424,660.382019 
	C573.172424,662.578552 573.172424,664.521973 573.172424,666.614075 
	C574.498535,666.908630 575.695190,667.174438 576.985474,667.461060 
	C576.985474,669.910522 576.985474,672.060364 576.902100,675.112061 
M570.995117,657.042236 
	C570.364746,654.489502 569.857178,651.130859 566.363098,652.279236 
	C564.801819,652.792297 564.088623,655.901489 563.002502,657.839172 
	C562.201477,659.268127 560.952271,660.642761 560.740723,662.158508 
	C560.433899,664.357422 560.056030,667.278442 561.184082,668.790955 
	C563.430237,671.802673 563.411499,673.050842 561.079224,676.226685 
	C559.979553,677.723999 560.496765,680.658813 560.823242,682.861877 
	C561.027283,684.238220 562.251892,685.459167 563.000366,686.760315 
	C563.605774,687.812561 563.971497,689.134521 564.840881,689.862000 
	C565.549500,690.454895 567.495728,690.831604 567.771240,690.463745 
	C569.060242,688.742676 570.788635,686.760376 570.858459,684.817444 
	C571.179871,675.872009 570.999939,666.908508 570.995117,657.042236 
z"/>
<path fill="#FAF7F2" opacity="1.000000" stroke="none" 
	d="
M121.000000,577.000000 
	C121.000000,524.865234 121.000000,473.230438 121.000000,421.298187 
	C441.052643,421.298187 760.767700,421.298187 1080.741455,421.298187 
	C1080.741455,486.019531 1080.741455,550.623108 1080.741455,615.613525 
	C761.124268,615.613525 441.409119,615.613525 121.000000,615.613525 
	C121.000000,603.014771 121.000000,590.257385 121.000000,577.000000 
M325.500000,436.000000 
	C272.413666,436.000000 219.327332,436.000000 166.394073,436.000000 
	C166.394073,491.412842 166.394073,546.134705 166.394073,600.743164 
	C456.385406,600.743164 745.982605,600.743164 1035.694092,600.743164 
	C1035.694092,545.764526 1035.694092,491.043121 1035.694092,436.000000 
	C799.092285,436.000000 562.796143,436.000000 325.500000,436.000000 
M150.997192,598.272156 
	C150.997192,544.327942 150.997192,490.383667 150.997192,436.296112 
	C145.782379,436.296112 141.060318,436.296112 136.341370,436.296112 
	C136.341370,491.313110 136.341370,546.033325 136.341370,600.991333 
	C140.663101,600.991333 144.649628,601.087341 148.624130,600.911499 
	C149.432983,600.875671 150.196594,599.816833 150.997192,598.272156 
M1066.000000,515.500000 
	C1066.000000,489.081024 1066.000000,462.662048 1066.000000,436.391449 
	C1060.584717,436.391449 1055.856934,436.391449 1051.252808,436.391449 
	C1051.252808,491.380310 1051.252808,545.977356 1051.252808,600.697510 
	C1056.231812,600.697510 1060.953369,600.697510 1066.000000,600.697510 
	C1066.000000,572.430847 1066.000000,544.465393 1066.000000,515.500000 
z"/>
<path fill="#FAF7F2" opacity="1.000000" stroke="none" 
	d="
M544.697205,798.292664 
	C528.467285,785.517395 518.033020,769.983398 518.012695,748.908264 
	C517.997620,733.308289 516.295166,735.012817 531.743591,735.007141 
	C582.883301,734.988220 634.023254,735.056885 685.162476,734.902710 
	C689.748962,734.888855 691.545654,736.057495 691.053467,740.775940 
	C690.203491,748.925293 690.553772,757.307190 688.750916,765.215393 
	C687.347046,771.373352 684.281128,777.592346 680.473877,782.675842 
	C670.974854,795.359070 658.605469,804.596497 643.236267,809.260071 
	C640.004700,810.240723 636.540588,810.890259 633.175964,810.924011 
	C616.519714,811.090942 599.843689,810.530823 583.208191,811.141479 
	C568.689026,811.674500 556.424438,806.661255 544.697205,798.292664 
z"/>
<path fill="#FAF7F2" opacity="1.000000" stroke="none" 
	d="
M804.000000,646.000000 
	C836.464722,646.000000 868.429443,646.000000 900.696533,646.000000 
	C900.696533,651.044739 900.696533,655.766357 900.696533,660.746338 
	C845.979065,660.746338 791.382019,660.746338 736.392334,660.746338 
	C736.392334,656.145142 736.392334,651.417236 736.392334,646.000000 
	C758.660950,646.000000 781.080444,646.000000 804.000000,646.000000 
z"/>
<path fill="#FAF7F2" opacity="1.000000" stroke="none" 
	d="
M436.000000,646.000000 
	C446.135406,646.000000 455.770813,646.000000 465.701599,646.000000 
	C465.701599,651.055115 465.701599,655.776794 465.701599,660.751343 
	C410.968933,660.751343 356.371887,660.751343 301.387268,660.751343 
	C301.387268,656.133667 301.387268,651.406433 301.387268,646.000000 
	C346.002655,646.000000 390.751343,646.000000 436.000000,646.000000 
z"/>
<path fill="#FAF7F2" opacity="1.000000" stroke="none" 
	d="
M657.841309,686.000000 
	C640.955872,685.666687 624.552673,685.374390 608.152832,684.951965 
	C605.915344,684.894287 603.694641,684.187256 601.245605,683.740601 
	C601.245605,681.261658 601.245605,678.858704 601.245605,676.000183 
	C602.733521,676.000183 604.023865,676.000122 605.314209,676.000122 
	C630.435242,676.000061 655.556702,675.942139 680.676697,676.104309 
	C682.811401,676.118042 685.732788,676.988647 686.913513,678.520874 
	C690.153870,682.726013 687.667114,686.994080 682.077820,686.935547 
	C674.157715,686.852722 666.242126,686.332947 657.841309,686.000000 
z"/>
<path fill="#FAF7F2" opacity="1.000000" stroke="none" 
	d="
M631.150513,652.006409 
	C642.417725,650.492065 653.236450,649.001465 664.048706,647.465271 
	C669.529114,646.686646 674.982361,645.694519 680.477112,645.046936 
	C684.309204,644.595276 686.753540,646.231384 687.013123,650.424866 
	C687.262939,654.461060 685.405701,655.743164 681.442078,656.101379 
	C665.645386,657.528992 649.877380,659.284851 634.110535,661.026245 
	C623.248413,662.225891 612.405762,663.601440 601.273499,664.932007 
	C601.273499,662.084717 601.273499,659.332764 601.273499,656.564514 
	C611.117798,655.041260 620.908569,653.526306 631.150513,652.006409 
z"/>
<path fill="#FAF7F2" opacity="1.000000" stroke="none" 
	d="
M528.084229,677.143799 
	C534.889099,676.335083 541.630554,675.990356 548.686157,675.629578 
	C548.686157,674.003845 548.686157,672.278381 548.686157,670.423767 
	C542.268677,671.003784 535.868835,671.582214 529.543884,672.153870 
	C528.231873,668.172546 529.410889,666.387268 533.037659,665.983337 
	C538.214294,665.406799 543.372986,664.669373 548.852783,663.960144 
	C548.912964,662.737671 548.592834,661.483521 549.078369,660.901672 
	C550.295410,659.443115 551.877136,658.288940 553.312622,657.012695 
	C554.540894,658.495483 556.764282,659.934998 556.830994,661.468384 
	C557.185486,669.616028 556.999634,677.787231 556.999878,685.950256 
	C557.000244,700.754028 557.000000,715.557861 557.000000,730.679565 
	C554.327454,730.679565 551.939392,730.679565 549.000000,730.679565 
	C549.000000,718.875854 549.000000,707.099182 549.000000,695.322449 
	C549.000000,682.000122 549.000000,682.000122 535.719849,682.000000 
	C533.398376,681.999939 531.076904,682.000000 528.300781,682.000000 
	C528.200500,680.426514 528.110657,679.017090 528.084229,677.143799 
z"/>
<path fill="#FAF7F2" opacity="1.000000" stroke="none" 
	d="
M587.001648,662.902588 
	C587.824646,660.572266 588.648743,658.697632 589.472839,656.822998 
	C589.985657,656.967651 590.498535,657.112244 591.011353,657.256836 
	C591.011353,655.108521 590.648926,652.871887 591.142761,650.843811 
	C591.455444,649.559814 592.866638,648.099121 594.121887,647.641541 
	C594.989929,647.325134 596.986755,648.281555 597.497009,649.209351 
	C598.394409,650.841187 598.910828,652.881226 598.937866,654.759583 
	C599.074036,664.219971 599.019714,673.683472 598.977661,683.145630 
	C598.971985,684.428101 599.037659,685.956177 598.400391,686.933899 
	C597.412292,688.450012 595.848083,689.590576 594.528076,690.890381 
	C593.351074,689.355896 592.226196,687.777344 590.979980,686.301270 
	C590.030273,685.176331 588.926514,684.181396 587.195679,682.421143 
	C587.195679,681.286560 587.195679,679.004272 587.195679,676.396790 
	C588.333191,676.152466 589.531677,675.895142 590.840088,675.614136 
	C590.840088,672.631775 590.840088,669.834473 590.840088,667.558228 
	C589.405640,665.988220 588.204224,664.673218 587.001648,662.902588 
z"/>
<path fill="#FAF7F2" opacity="1.000000" stroke="none" 
	d="
M576.943787,674.661133 
	C576.985474,672.060364 576.985474,669.910522 576.985474,667.461060 
	C575.695190,667.174438 574.498535,666.908630 573.172424,666.614075 
	C573.172424,664.521973 573.172424,662.578552 573.172424,660.382019 
	C574.405945,660.125427 575.605652,659.875916 577.008423,659.584106 
	C577.008423,656.871033 576.548340,654.272156 577.172058,651.966492 
	C577.579712,650.459351 579.558777,649.377319 580.833984,648.104858 
	C581.886536,649.388245 583.826050,650.653381 583.852966,651.957947 
	C584.092590,663.579346 584.111206,675.210388 583.843445,686.830566 
	C583.811096,688.236450 581.695251,689.594360 580.544983,690.974548 
	C579.364868,689.621765 577.448914,688.403076 577.172546,686.885681 
	C576.728455,684.447632 577.249268,681.910583 573.232849,683.154480 
	C573.232849,680.699829 573.232849,678.752991 573.232849,676.671631 
	C574.363037,676.191223 575.632568,675.651672 576.943787,674.661133 
z"/>
<path fill="#FAF7F2" opacity="1.000000" stroke="none" 
	d="
M570.997437,657.496887 
	C570.999939,666.908508 571.179871,675.872009 570.858459,684.817444 
	C570.788635,686.760376 569.060242,688.742676 567.771240,690.463745 
	C567.495728,690.831604 565.549500,690.454895 564.840881,689.862000 
	C563.971497,689.134521 563.605774,687.812561 563.000366,686.760315 
	C562.251892,685.459167 561.027283,684.238220 560.823242,682.861877 
	C560.496765,680.658813 559.979553,677.723999 561.079224,676.226685 
	C563.411499,673.050842 563.430237,671.802673 561.184082,668.790955 
	C560.056030,667.278442 560.433899,664.357422 560.740723,662.158508 
	C560.952271,660.642761 562.201477,659.268127 563.002502,657.839172 
	C564.088623,655.901489 564.801819,652.792297 566.363098,652.279236 
	C569.857178,651.130859 570.364746,654.489502 570.997437,657.496887 
z"/>
<path fill="#242124" opacity="1.000000" stroke="none" 
	d="
M326.000000,436.000000 
	C562.796143,436.000000 799.092285,436.000000 1035.694092,436.000000 
	C1035.694092,491.043121 1035.694092,545.764526 1035.694092,600.743164 
	C745.982605,600.743164 456.385406,600.743164 166.394073,600.743164 
	C166.394073,546.134705 166.394073,491.412842 166.394073,436.000000 
	C219.327332,436.000000 272.413666,436.000000 326.000000,436.000000 
M484.077362,509.725922 
	C482.576233,515.517578 481.075134,521.309204 479.574005,527.100830 
	C476.625153,520.040344 474.717468,513.205200 472.993744,506.324036 
	C471.248627,499.357391 470.743469,498.997620 463.354370,500.661652 
	C463.354370,515.410522 463.354370,530.134094 463.354370,544.777344 
	C465.326019,544.777344 466.939453,544.777344 468.927002,544.777344 
	C468.927002,534.008850 468.927002,523.451843 468.927002,512.894775 
	C469.166382,512.862915 469.405762,512.831055 469.645111,512.799194 
	C471.904724,520.814209 474.164307,528.829224 476.420105,536.830811 
	C478.275848,536.830811 479.900238,536.830811 481.589447,536.830811 
	C483.852234,529.028320 486.076294,521.359375 488.300385,513.690430 
	C488.593475,513.744324 488.886597,513.798279 489.179718,513.852234 
	C489.179718,524.125122 489.179718,534.398010 489.179718,544.689575 
	C491.264679,544.689575 492.986176,544.689575 495.002075,544.689575 
	C495.002075,537.083862 495.002106,529.781128 495.002106,522.478455 
	C495.002106,515.043579 495.002075,507.608734 495.002075,500.228638 
	C486.396423,499.720306 486.400208,499.721008 484.966248,507.622437 
	C484.880341,508.095764 484.656189,508.544037 484.077362,509.725922 
M860.724915,524.002014 
	C865.669006,524.002014 870.613098,524.002014 875.985291,524.002014 
	C875.985291,517.923340 876.187256,512.302551 875.915833,506.704681 
	C875.728333,502.837433 871.562866,499.258606 867.568359,499.023743 
	C865.579651,498.906799 863.577759,499.035736 861.583130,498.994080 
	C856.735352,498.892822 853.421570,501.213623 853.102600,505.978790 
	C852.441772,515.848816 852.043823,525.762939 852.223450,535.646423 
	C852.276733,538.580994 854.119324,541.873352 856.045959,544.277344 
	C858.101807,546.842590 868.636047,546.787842 871.588135,544.740906 
	C876.139832,541.584839 876.809143,537.183411 875.501892,531.965698 
	C873.567322,532.053284 871.832703,532.131897 870.147705,532.208191 
	C870.075073,533.243469 870.019348,533.739990 870.008484,534.237366 
	C869.873718,540.398132 869.226074,540.900635 863.624268,541.050659 
	C858.221741,541.195312 857.977539,537.723816 857.997375,533.844604 
	C858.008423,531.682861 857.802002,529.495239 858.078613,527.369385 
	C858.230896,526.198669 859.180420,525.131714 860.724915,524.002014 
M641.255493,545.249817 
	C647.049133,541.737793 648.036316,539.152283 646.287415,532.225952 
	C644.644470,532.225952 643.027100,532.225952 640.998047,532.225952 
	C640.998047,533.567993 640.951782,534.692871 641.006470,535.812805 
	C641.195374,539.682739 639.211914,540.860168 635.541321,541.095215 
	C630.673279,541.406860 628.957092,539.174438 628.994080,534.749451 
	C629.022827,531.302551 628.999756,527.855225 628.999756,523.919739 
	C635.216003,523.919739 640.946411,523.919739 646.994324,523.919739 
	C646.994324,517.956360 647.153748,512.488342 646.940796,507.034912 
	C646.787537,503.112061 642.823730,499.342834 638.890564,499.032135 
	C636.905945,498.875366 634.898804,498.983154 632.902161,499.004364 
	C627.495300,499.061737 624.667419,500.882324 624.115967,506.172974 
	C623.314697,513.860474 623.119751,521.631104 623.042664,529.369995 
	C622.890930,544.597839 625.278625,546.724731 641.255493,545.249817 
M352.032501,505.159119 
	C352.032501,507.620178 352.032501,510.081268 352.032501,512.763428 
	C353.803070,512.763428 355.203064,512.763428 355.669830,512.763428 
	C357.350922,509.487427 358.080078,505.370239 360.273956,504.323822 
	C365.699463,501.735992 368.982971,504.589874 368.999359,510.780182 
	C369.006287,513.393005 369.000519,516.005798 369.000519,518.999939 
	C366.534271,518.999939 364.538300,518.755371 362.625000,519.049194 
	C358.182709,519.731384 352.821289,519.829712 351.978119,525.586182 
	C351.262482,530.472229 351.391815,535.605713 352.000732,540.524109 
	C352.515472,544.681763 355.838562,546.589844 359.979919,545.935852 
	C363.659821,545.354797 367.254120,544.231689 371.039093,543.310547 
	C371.699127,543.696228 373.027832,544.472656 374.996948,545.623352 
	C374.996948,532.458496 375.199188,520.319702 374.882996,508.194336 
	C374.777893,504.164978 372.556000,500.594299 368.389954,499.204895 
	C362.526245,497.249237 356.199097,499.397278 352.032501,505.159119 
M402.846405,545.965271 
	C412.247955,541.469055 413.118896,532.442017 405.072083,525.462708 
	C400.930542,521.870605 396.909332,518.021301 393.510803,513.749573 
	C392.157532,512.048584 391.961670,508.717102 392.548065,506.469482 
	C392.860779,505.270935 395.898743,504.394745 397.821655,504.083740 
	C402.190796,503.377136 404.421051,505.357880 404.022278,509.971771 
	C403.884888,511.561127 404.000458,513.172302 404.000458,514.645996 
	C406.383118,514.645996 408.115021,514.645996 410.001129,514.645996 
	C410.001129,513.136169 410.052673,511.974335 409.993042,510.818237 
	C409.462860,500.541901 401.730896,495.497070 392.156281,499.565002 
	C390.043518,500.462677 388.151550,502.843994 387.065094,504.999359 
	C384.529633,510.029419 386.461853,514.569031 389.972321,518.378601 
	C393.807495,522.540466 398.110291,526.278992 401.841644,530.525146 
	C403.286133,532.168884 404.604156,534.768860 404.441193,536.810425 
	C404.059418,541.593445 400.023163,541.020020 396.591583,541.008484 
	C393.152344,540.996948 391.888000,539.134888 391.989685,535.928772 
	C392.050690,534.005127 392.000916,532.077942 392.000916,530.216064 
	C389.679352,530.216064 388.063538,530.216064 386.485229,530.216064 
	C384.848663,542.381531 387.876404,546.003235 399.474213,545.999390 
	C400.307281,545.999084 401.140320,545.996155 402.846405,545.965271 
M773.682007,545.999573 
	C778.998230,546.443237 784.072021,545.877014 786.732117,540.502075 
	C788.950012,536.020752 786.322144,529.364563 781.468994,524.894775 
	C777.674988,521.400452 774.045776,517.715149 770.501709,513.965088 
	C767.553040,510.845032 768.613037,505.027344 772.140381,504.046631 
	C778.117737,502.384705 780.940308,504.542297 781.007507,510.798920 
	C781.021362,512.086182 781.123657,513.372498 781.187378,514.706055 
	C783.252747,514.706055 784.985596,514.706055 786.999268,514.706055 
	C786.999268,513.107544 787.074707,511.793304 786.987244,510.490021 
	C786.305542,500.326874 778.258972,495.421661 768.908752,499.761627 
	C766.919983,500.684753 765.093628,502.808838 764.085754,504.825958 
	C761.583984,509.832733 763.325134,514.423950 766.846313,518.259399 
	C770.673096,522.427612 774.979492,526.160889 778.729614,530.391541 
	C780.211243,532.062927 781.664917,534.617188 781.545410,536.677429 
	C781.266968,541.476440 777.260742,541.043396 773.767273,541.017761 
	C770.436401,540.993347 768.925964,539.376587 768.993713,536.105225 
	C769.033875,534.165344 769.001099,532.223877 769.001099,530.335938 
	C766.687012,530.335938 764.959839,530.335938 763.263977,530.335938 
	C762.453857,541.616272 764.875977,545.501770 773.682007,545.999573 
M580.000244,514.505920 
	C579.999451,521.163086 580.546021,527.890076 579.710815,534.440857 
	C579.404785,536.840698 576.194458,539.679688 573.644592,540.783569 
	C570.293335,542.234436 567.682434,540.464783 567.626709,536.240662 
	C567.605408,534.625854 567.039612,533.017029 567.029175,531.403503 
	C566.965637,521.584534 566.999268,511.764984 566.966003,501.945740 
	C566.963928,501.331726 566.669739,500.718658 566.457764,499.897003 
	C564.908813,500.072113 563.519165,500.229218 562.001404,500.400787 
	C562.001404,513.271301 561.936584,525.744629 562.034973,538.216675 
	C562.071594,542.854370 565.174683,546.182678 569.773560,545.867920 
	C573.718994,545.597900 577.586853,544.194519 581.950012,543.185730 
	C582.425781,543.484985 583.854675,544.383789 585.741272,545.570496 
	C585.741272,529.851562 585.741272,515.100281 585.741272,500.304688 
	C583.757324,500.304688 582.036926,500.304688 580.000244,500.304688 
	C580.000244,504.902649 580.000244,509.206268 580.000244,514.505920 
M713.999756,514.505615 
	C713.999756,509.732513 713.999756,504.959412 713.999756,499.877594 
	C711.965149,500.076141 710.574890,500.211823 709.003174,500.365204 
	C709.003174,513.369263 708.884460,526.005249 709.068359,538.636841 
	C709.131592,542.981628 711.901855,545.969604 716.199890,545.837769 
	C720.290344,545.712280 724.340576,544.276855 729.135193,543.263855 
	C729.392395,543.433960 730.823120,544.380066 732.765625,545.664551 
	C732.765625,529.922791 732.765625,515.167664 732.765625,500.273407 
	C730.808105,500.273407 729.088135,500.273407 727.000244,500.273407 
	C727.000244,502.173004 727.000244,503.807465 727.000183,505.441925 
	C727.000000,514.928345 727.024353,524.414856 726.988342,533.901123 
	C726.972778,537.991333 724.503113,540.099548 720.809631,540.978577 
	C716.605835,541.979004 714.584106,539.881958 714.434937,535.904541 
	C714.179932,529.108459 714.133667,522.304565 713.999756,514.505615 
M525.997742,512.515808 
	C525.997742,523.286987 525.997742,534.058167 525.997742,544.807739 
	C528.268494,544.807739 529.886108,544.807739 531.999451,544.807739 
	C531.999451,543.002563 531.999390,541.380249 531.999390,539.757935 
	C531.999451,530.760925 531.839783,521.759155 532.111450,512.770325 
	C532.179688,510.513611 533.018005,507.523590 534.606934,506.264618 
	C536.506348,504.759613 539.715393,504.005646 542.112366,504.403107 
	C543.348694,504.608124 544.828125,507.995972 544.872375,509.975311 
	C545.131775,521.579163 544.999756,533.191711 544.999756,545.114502 
	C547.027954,544.921875 548.418823,544.789734 549.996033,544.639893 
	C549.996033,531.623108 550.126709,518.973267 549.923950,506.328796 
	C549.854675,502.006561 547.066772,498.975006 542.753784,499.165497 
	C538.605225,499.348755 534.515320,500.860474 530.420044,501.783905 
	C529.631775,501.315765 528.215210,500.474457 525.997742,499.157562 
	C525.997742,504.221008 525.997742,507.872986 525.997742,512.515808 
M840.999451,530.493835 
	C840.999390,522.829895 841.047058,515.165588 840.983215,507.502197 
	C840.936890,501.939209 837.989136,498.728271 832.432190,499.135986 
	C828.756226,499.405701 825.175232,500.968323 821.449402,501.979889 
	C820.706848,501.462311 819.328003,500.501251 817.270020,499.066772 
	C817.270020,515.172974 817.270020,529.929749 817.270020,544.676697 
	C819.269409,544.676697 820.991455,544.676697 822.999390,544.676697 
	C822.999390,543.048096 822.999390,541.736938 822.999451,540.425842 
	C822.999756,530.929260 822.930176,521.431885 823.029541,511.936340 
	C823.079529,507.157745 826.215881,504.122498 830.502258,503.969025 
	C836.009705,503.771820 836.001831,507.479279 836.002747,511.302704 
	C836.005249,521.965332 836.013611,532.627991 836.044312,543.290527 
	C836.045654,543.753357 836.291626,544.215515 836.429565,544.698853 
	C837.901550,544.698853 839.288879,544.698853 840.598145,544.698853 
	C840.773193,544.101685 840.940063,543.793396 840.942566,543.483826 
	C840.975098,539.485962 840.984375,535.487793 840.999451,530.493835 
M676.423340,542.906372 
	C680.258972,546.175171 688.997009,547.264587 693.070618,544.981812 
	C697.479431,542.511230 698.742859,538.747498 697.380737,532.354919 
	C695.597900,532.354919 693.864319,532.354919 692.147522,532.354919 
	C692.082520,533.201477 692.021240,533.697388 692.009827,534.194458 
	C691.866638,540.439270 691.268982,540.897156 685.650879,541.050232 
	C680.264282,541.197083 679.989136,537.748108 679.995544,533.855347 
	C680.008179,526.195007 680.012817,518.534607 679.993713,510.874329 
	C679.983643,506.847565 680.651062,503.867950 685.920044,503.881714 
	C690.903931,503.894714 692.422241,506.069550 692.023254,510.579346 
	C691.868713,512.325745 691.998047,514.097168 691.998047,515.786865 
	C694.312439,515.786865 695.928345,515.786865 698.203003,515.786865 
	C697.918274,511.997620 698.325195,508.222839 697.242920,504.938782 
	C695.047791,498.277618 689.092957,498.914001 683.568176,498.969940 
	C678.724731,499.019012 675.462463,501.222961 675.091980,506.011322 
	C674.430420,514.560730 674.101807,523.154053 674.110046,531.728516 
	C674.113403,535.216492 675.360229,538.703308 676.423340,542.906372 
M602.999756,527.440186 
	C602.999756,520.026123 602.999756,512.612000 602.999756,504.903931 
	C606.972534,504.903931 610.255371,504.903931 613.757690,504.903931 
	C613.757690,503.204163 613.757690,501.817688 613.757690,500.279419 
	C608.488464,500.279419 603.430359,500.279419 598.000488,500.279419 
	C598.000488,512.829102 597.971619,525.103394 598.014099,537.377380 
	C598.032166,542.576538 600.740601,545.637146 605.435608,545.996887 
	C611.901184,546.492310 615.252075,544.230469 615.914062,538.474060 
	C616.265869,535.415344 615.976440,532.282959 615.976440,528.943298 
	C613.607300,529.061035 611.880188,529.146851 609.995178,529.240540 
	C609.995178,532.405029 610.221375,535.085205 609.891907,537.695251 
	C609.745361,538.856323 608.431824,540.794861 607.730286,540.759155 
	C606.461609,540.694641 604.405212,539.606445 604.177612,538.604858 
	C603.424500,535.291016 603.340515,531.825134 602.999756,527.440186 
M421.000305,527.486572 
	C421.000397,530.812805 420.960114,534.139587 421.009949,537.465088 
	C421.087158,542.616028 423.804230,545.668335 428.521912,545.997375 
	C434.806152,546.435669 438.113464,544.359741 438.878693,538.883789 
	C439.324768,535.691589 438.959900,532.386108 438.959900,529.219849 
	C436.674438,529.219849 435.061127,529.219849 432.998932,529.219849 
	C432.998932,531.883057 433.276733,534.381775 432.896667,536.776184 
	C432.661835,538.255676 431.425659,539.576233 430.639008,540.968140 
	C429.388519,539.835449 427.081970,538.729980 427.051941,537.565857 
	C426.773621,526.766235 426.887482,515.956482 426.887482,504.838867 
	C430.045380,504.838867 433.327606,504.838867 436.732056,504.838867 
	C436.732056,503.142609 436.732056,501.756653 436.732056,500.312866 
	C431.412292,500.312866 426.358063,500.312866 421.000305,500.312866 
	C421.000305,509.245697 421.000305,517.868408 421.000305,527.486572 
M325.998169,536.448242 
	C325.998169,539.212280 325.998169,541.976257 325.998169,544.686890 
	C332.715271,544.686890 338.780640,544.686890 345.450348,544.686890 
	C343.326172,536.071594 336.109955,542.354065 331.973083,538.875061 
	C331.973083,526.478638 331.973083,513.417053 331.973083,500.296753 
	C329.758209,500.296753 328.037750,500.296753 325.998169,500.296753 
	C325.998169,512.210632 325.998169,523.834839 325.998169,536.448242 
M798.013428,501.825989 
	C798.013428,516.174622 798.013428,530.523254 798.013428,544.760620 
	C800.373535,544.760620 801.976685,544.760620 803.774536,544.760620 
	C803.774536,529.832886 803.774536,515.140381 803.774536,499.693848 
	C801.660522,500.139648 799.881775,500.514740 798.013428,501.825989 
M747.533142,544.996155 
	C749.914795,545.313416 751.141174,544.708862 751.060120,541.867859 
	C750.866211,535.068054 750.998718,528.258850 750.998962,521.453491 
	C750.999268,514.370483 750.999023,507.287445 750.999023,499.949249 
	C748.640442,500.066711 746.918945,500.152466 745.004211,500.247803 
	C745.004211,514.649658 744.976929,528.578064 745.072815,542.505615 
	C745.078491,543.333435 746.072693,544.154480 747.533142,544.996155 
M512.999023,527.498535 
	C512.999023,518.426331 512.999023,509.354095 512.999023,500.325684 
	C510.710999,500.325684 508.994049,500.325684 507.279114,500.325684 
	C507.279114,515.335815 507.279114,530.022766 507.279114,544.674622 
	C509.292267,544.674622 511.009857,544.674622 512.999023,544.674622 
	C512.999023,539.070190 512.999023,533.783997 512.999023,527.498535 
z"/>
<path fill="#242124" opacity="1.000000" stroke="none" 
	d="
M150.989136,598.750854 
	C150.196594,599.816833 149.432983,600.875671 148.624130,600.911499 
	C144.649628,601.087341 140.663101,600.991333 136.341370,600.991333 
	C136.341370,546.033325 136.341370,491.313110 136.341370,436.296112 
	C141.060318,436.296112 145.782379,436.296112 150.997192,436.296112 
	C150.997192,490.383667 150.997192,544.327942 150.989136,598.750854 
z"/>
<path fill="#242124" opacity="1.000000" stroke="none" 
	d="
M1066.000000,516.000000 
	C1066.000000,544.465393 1066.000000,572.430847 1066.000000,600.697510 
	C1060.953369,600.697510 1056.231812,600.697510 1051.252808,600.697510 
	C1051.252808,545.977356 1051.252808,491.380310 1051.252808,436.391449 
	C1055.856934,436.391449 1060.584717,436.391449 1066.000000,436.391449 
	C1066.000000,462.662048 1066.000000,489.081024 1066.000000,516.000000 
z"/>
<path fill="#FAF7F2" opacity="1.000000" stroke="none" 
	d="
M484.286865,509.364960 
	C484.656189,508.544037 484.880341,508.095764 484.966248,507.622437 
	C486.400208,499.721008 486.396423,499.720306 495.002075,500.228638 
	C495.002075,507.608734 495.002106,515.043579 495.002106,522.478455 
	C495.002106,529.781128 495.002075,537.083862 495.002075,544.689575 
	C492.986176,544.689575 491.264679,544.689575 489.179718,544.689575 
	C489.179718,534.398010 489.179718,524.125122 489.179718,513.852234 
	C488.886597,513.798279 488.593475,513.744324 488.300385,513.690430 
	C486.076294,521.359375 483.852234,529.028320 481.589447,536.830811 
	C479.900238,536.830811 478.275848,536.830811 476.420105,536.830811 
	C474.164307,528.829224 471.904724,520.814209 469.645111,512.799194 
	C469.405762,512.831055 469.166382,512.862915 468.927002,512.894775 
	C468.927002,523.451843 468.927002,534.008850 468.927002,544.777344 
	C466.939453,544.777344 465.326019,544.777344 463.354370,544.777344 
	C463.354370,530.134094 463.354370,515.410522 463.354370,500.661652 
	C470.743469,498.997620 471.248627,499.357391 472.993744,506.324036 
	C474.717468,513.205200 476.625153,520.040344 479.574005,527.100830 
	C481.075134,521.309204 482.576233,515.517578 484.286865,509.364960 
z"/>
<path fill="#FAF7F2" opacity="1.000000" stroke="none" 
	d="
M860.247681,524.010010 
	C859.180420,525.131714 858.230896,526.198669 858.078613,527.369385 
	C857.802002,529.495239 858.008423,531.682861 857.997375,533.844604 
	C857.977539,537.723816 858.221741,541.195312 863.624268,541.050659 
	C869.226074,540.900635 869.873718,540.398132 870.008484,534.237366 
	C870.019348,533.739990 870.075073,533.243469 870.147705,532.208191 
	C871.832703,532.131897 873.567322,532.053284 875.501892,531.965698 
	C876.809143,537.183411 876.139832,541.584839 871.588135,544.740906 
	C868.636047,546.787842 858.101807,546.842590 856.045959,544.277344 
	C854.119324,541.873352 852.276733,538.580994 852.223450,535.646423 
	C852.043823,525.762939 852.441772,515.848816 853.102600,505.978790 
	C853.421570,501.213623 856.735352,498.892822 861.583130,498.994080 
	C863.577759,499.035736 865.579651,498.906799 867.568359,499.023743 
	C871.562866,499.258606 875.728333,502.837433 875.915833,506.704681 
	C876.187256,512.302551 875.985291,517.923340 875.985291,524.002014 
	C870.613098,524.002014 865.669006,524.002014 860.247681,524.010010 
M857.999207,514.470215 
	C858.091370,515.899170 858.183472,517.328125 858.267944,518.637390 
	C862.377197,518.637390 866.092957,518.637390 869.997986,518.637390 
	C869.997986,515.300171 869.907654,512.318909 870.020874,509.345367 
	C870.164124,505.582184 868.470947,504.108063 864.715942,503.914734 
	C860.745544,503.710297 858.322998,504.863983 858.022278,509.055603 
	C857.915649,510.542572 858.001404,512.043396 857.999207,514.470215 
z"/>
<path fill="#FAF7F2" opacity="1.000000" stroke="none" 
	d="
M640.944824,545.529541 
	C625.278625,546.724731 622.890930,544.597839 623.042664,529.369995 
	C623.119751,521.631104 623.314697,513.860474 624.115967,506.172974 
	C624.667419,500.882324 627.495300,499.061737 632.902161,499.004364 
	C634.898804,498.983154 636.905945,498.875366 638.890564,499.032135 
	C642.823730,499.342834 646.787537,503.112061 646.940796,507.034912 
	C647.153748,512.488342 646.994324,517.956360 646.994324,523.919739 
	C640.946411,523.919739 635.216003,523.919739 628.999756,523.919739 
	C628.999756,527.855225 629.022827,531.302551 628.994080,534.749451 
	C628.957092,539.174438 630.673279,541.406860 635.541321,541.095215 
	C639.211914,540.860168 641.195374,539.682739 641.006470,535.812805 
	C640.951782,534.692871 640.998047,533.567993 640.998047,532.225952 
	C643.027100,532.225952 644.644470,532.225952 646.287415,532.225952 
	C648.036316,539.152283 647.049133,541.737793 640.944824,545.529541 
M629.018799,517.269653 
	C632.838623,518.060852 636.658447,518.852051 640.998047,519.750916 
	C640.998047,515.787659 640.870483,513.152283 641.027527,510.533997 
	C641.272522,506.449097 640.293884,504.006012 635.408691,503.881683 
	C630.495239,503.756714 628.943665,506.019440 628.995667,510.355591 
	C629.019592,512.347778 629.001343,514.340454 629.018799,517.269653 
z"/>
<path fill="#FAF7F2" opacity="1.000000" stroke="none" 
	d="
M352.126709,504.745331 
	C356.199097,499.397278 362.526245,497.249237 368.389954,499.204895 
	C372.556000,500.594299 374.777893,504.164978 374.882996,508.194336 
	C375.199188,520.319702 374.996948,532.458496 374.996948,545.623352 
	C373.027832,544.472656 371.699127,543.696228 371.039093,543.310547 
	C367.254120,544.231689 363.659821,545.354797 359.979919,545.935852 
	C355.838562,546.589844 352.515472,544.681763 352.000732,540.524109 
	C351.391815,535.605713 351.262482,530.472229 351.978119,525.586182 
	C352.821289,519.829712 358.182709,519.731384 362.625000,519.049194 
	C364.538300,518.755371 366.534271,518.999939 369.000519,518.999939 
	C369.000519,516.005798 369.006287,513.393005 368.999359,510.780182 
	C368.982971,504.589874 365.699463,501.735992 360.273956,504.323822 
	C358.080078,505.370239 357.350922,509.487427 355.669830,512.763428 
	C355.203064,512.763428 353.803070,512.763428 352.032501,512.763428 
	C352.032501,510.081268 352.032501,507.620178 352.126709,504.745331 
M368.973633,535.765198 
	C368.973633,531.985168 368.973633,528.205200 368.973633,524.486267 
	C358.064484,523.320984 356.221161,523.981995 356.993683,534.049927 
	C357.044342,534.710449 356.852997,535.420288 357.028809,536.034302 
	C357.493378,537.656982 357.818878,540.391907 358.703094,540.606201 
	C360.747894,541.101440 363.224548,540.740601 365.265717,540.004700 
	C366.676056,539.496338 367.651489,537.781494 368.973633,535.765198 
z"/>
<path fill="#FAF7F2" opacity="1.000000" stroke="none" 
	d="
M402.409912,545.979858 
	C401.140320,545.996155 400.307281,545.999084 399.474213,545.999390 
	C387.876404,546.003235 384.848663,542.381531 386.485229,530.216064 
	C388.063538,530.216064 389.679352,530.216064 392.000916,530.216064 
	C392.000916,532.077942 392.050690,534.005127 391.989685,535.928772 
	C391.888000,539.134888 393.152344,540.996948 396.591583,541.008484 
	C400.023163,541.020020 404.059418,541.593445 404.441193,536.810425 
	C404.604156,534.768860 403.286133,532.168884 401.841644,530.525146 
	C398.110291,526.278992 393.807495,522.540466 389.972321,518.378601 
	C386.461853,514.569031 384.529633,510.029419 387.065094,504.999359 
	C388.151550,502.843994 390.043518,500.462677 392.156281,499.565002 
	C401.730896,495.497070 409.462860,500.541901 409.993042,510.818237 
	C410.052673,511.974335 410.001129,513.136169 410.001129,514.645996 
	C408.115021,514.645996 406.383118,514.645996 404.000458,514.645996 
	C404.000458,513.172302 403.884888,511.561127 404.022278,509.971771 
	C404.421051,505.357880 402.190796,503.377136 397.821655,504.083740 
	C395.898743,504.394745 392.860779,505.270935 392.548065,506.469482 
	C391.961670,508.717102 392.157532,512.048584 393.510803,513.749573 
	C396.909332,518.021301 400.930542,521.870605 405.072083,525.462708 
	C413.118896,532.442017 412.247955,541.469055 402.409912,545.979858 
z"/>
<path fill="#FAF7F2" opacity="1.000000" stroke="none" 
	d="
M773.239624,545.999512 
	C764.875977,545.501770 762.453857,541.616272 763.263977,530.335938 
	C764.959839,530.335938 766.687012,530.335938 769.001099,530.335938 
	C769.001099,532.223877 769.033875,534.165344 768.993713,536.105225 
	C768.925964,539.376587 770.436401,540.993347 773.767273,541.017761 
	C777.260742,541.043396 781.266968,541.476440 781.545410,536.677429 
	C781.664917,534.617188 780.211243,532.062927 778.729614,530.391541 
	C774.979492,526.160889 770.673096,522.427612 766.846313,518.259399 
	C763.325134,514.423950 761.583984,509.832733 764.085754,504.825958 
	C765.093628,502.808838 766.919983,500.684753 768.908752,499.761627 
	C778.258972,495.421661 786.305542,500.326874 786.987244,510.490021 
	C787.074707,511.793304 786.999268,513.107544 786.999268,514.706055 
	C784.985596,514.706055 783.252747,514.706055 781.187378,514.706055 
	C781.123657,513.372498 781.021362,512.086182 781.007507,510.798920 
	C780.940308,504.542297 778.117737,502.384705 772.140381,504.046631 
	C768.613037,505.027344 767.553040,510.845032 770.501709,513.965088 
	C774.045776,517.715149 777.674988,521.400452 781.468994,524.894775 
	C786.322144,529.364563 788.950012,536.020752 786.732117,540.502075 
	C784.072021,545.877014 778.998230,546.443237 773.239624,545.999512 
z"/>
<path fill="#FAF7F2" opacity="1.000000" stroke="none" 
	d="
M580.000244,514.007935 
	C580.000244,509.206268 580.000244,504.902649 580.000244,500.304688 
	C582.036926,500.304688 583.757324,500.304688 585.741272,500.304688 
	C585.741272,515.100281 585.741272,529.851562 585.741272,545.570496 
	C583.854675,544.383789 582.425781,543.484985 581.950012,543.185730 
	C577.586853,544.194519 573.718994,545.597900 569.773560,545.867920 
	C565.174683,546.182678 562.071594,542.854370 562.034973,538.216675 
	C561.936584,525.744629 562.001404,513.271301 562.001404,500.400787 
	C563.519165,500.229218 564.908813,500.072113 566.457764,499.897003 
	C566.669739,500.718658 566.963928,501.331726 566.966003,501.945740 
	C566.999268,511.764984 566.965637,521.584534 567.029175,531.403503 
	C567.039612,533.017029 567.605408,534.625854 567.626709,536.240662 
	C567.682434,540.464783 570.293335,542.234436 573.644592,540.783569 
	C576.194458,539.679688 579.404785,536.840698 579.710815,534.440857 
	C580.546021,527.890076 579.999451,521.163086 580.000244,514.007935 
z"/>
<path fill="#FAF7F2" opacity="1.000000" stroke="none" 
	d="
M713.999756,515.004761 
	C714.133667,522.304565 714.179932,529.108459 714.434937,535.904541 
	C714.584106,539.881958 716.605835,541.979004 720.809631,540.978577 
	C724.503113,540.099548 726.972778,537.991333 726.988342,533.901123 
	C727.024353,524.414856 727.000000,514.928345 727.000183,505.441925 
	C727.000244,503.807465 727.000244,502.173004 727.000244,500.273407 
	C729.088135,500.273407 730.808105,500.273407 732.765625,500.273407 
	C732.765625,515.167664 732.765625,529.922791 732.765625,545.664551 
	C730.823120,544.380066 729.392395,543.433960 729.135193,543.263855 
	C724.340576,544.276855 720.290344,545.712280 716.199890,545.837769 
	C711.901855,545.969604 709.131592,542.981628 709.068359,538.636841 
	C708.884460,526.005249 709.003174,513.369263 709.003174,500.365204 
	C710.574890,500.211823 711.965149,500.076141 713.999756,499.877594 
	C713.999756,504.959412 713.999756,509.732513 713.999756,515.004761 
z"/>
<path fill="#FAF7F2" opacity="1.000000" stroke="none" 
	d="
M525.997742,512.020386 
	C525.997742,507.872986 525.997742,504.221008 525.997742,499.157562 
	C528.215210,500.474457 529.631775,501.315765 530.420044,501.783905 
	C534.515320,500.860474 538.605225,499.348755 542.753784,499.165497 
	C547.066772,498.975006 549.854675,502.006561 549.923950,506.328796 
	C550.126709,518.973267 549.996033,531.623108 549.996033,544.639893 
	C548.418823,544.789734 547.027954,544.921875 544.999756,545.114502 
	C544.999756,533.191711 545.131775,521.579163 544.872375,509.975311 
	C544.828125,507.995972 543.348694,504.608124 542.112366,504.403107 
	C539.715393,504.005646 536.506348,504.759613 534.606934,506.264618 
	C533.018005,507.523590 532.179688,510.513611 532.111450,512.770325 
	C531.839783,521.759155 531.999451,530.760925 531.999390,539.757935 
	C531.999390,541.380249 531.999451,543.002563 531.999451,544.807739 
	C529.886108,544.807739 528.268494,544.807739 525.997742,544.807739 
	C525.997742,534.058167 525.997742,523.286987 525.997742,512.020386 
z"/>
<path fill="#FAF7F2" opacity="1.000000" stroke="none" 
	d="
M840.999451,530.991821 
	C840.984375,535.487793 840.975098,539.485962 840.942566,543.483826 
	C840.940063,543.793396 840.773193,544.101685 840.598145,544.698853 
	C839.288879,544.698853 837.901550,544.698853 836.429565,544.698853 
	C836.291626,544.215515 836.045654,543.753357 836.044312,543.290527 
	C836.013611,532.627991 836.005249,521.965332 836.002747,511.302704 
	C836.001831,507.479279 836.009705,503.771820 830.502258,503.969025 
	C826.215881,504.122498 823.079529,507.157745 823.029541,511.936340 
	C822.930176,521.431885 822.999756,530.929260 822.999451,540.425842 
	C822.999390,541.736938 822.999390,543.048096 822.999390,544.676697 
	C820.991455,544.676697 819.269409,544.676697 817.270020,544.676697 
	C817.270020,529.929749 817.270020,515.172974 817.270020,499.066772 
	C819.328003,500.501251 820.706848,501.462311 821.449402,501.979889 
	C825.175232,500.968323 828.756226,499.405701 832.432190,499.135986 
	C837.989136,498.728271 840.936890,501.939209 840.983215,507.502197 
	C841.047058,515.165588 840.999390,522.829895 840.999451,530.991821 
z"/>
<path fill="#FAF7F2" opacity="1.000000" stroke="none" 
	d="
M676.232300,542.548462 
	C675.360229,538.703308 674.113403,535.216492 674.110046,531.728516 
	C674.101807,523.154053 674.430420,514.560730 675.091980,506.011322 
	C675.462463,501.222961 678.724731,499.019012 683.568176,498.969940 
	C689.092957,498.914001 695.047791,498.277618 697.242920,504.938782 
	C698.325195,508.222839 697.918274,511.997620 698.203003,515.786865 
	C695.928345,515.786865 694.312439,515.786865 691.998047,515.786865 
	C691.998047,514.097168 691.868713,512.325745 692.023254,510.579346 
	C692.422241,506.069550 690.903931,503.894714 685.920044,503.881714 
	C680.651062,503.867950 679.983643,506.847565 679.993713,510.874329 
	C680.012817,518.534607 680.008179,526.195007 679.995544,533.855347 
	C679.989136,537.748108 680.264282,541.197083 685.650879,541.050232 
	C691.268982,540.897156 691.866638,540.439270 692.009827,534.194458 
	C692.021240,533.697388 692.082520,533.201477 692.147522,532.354919 
	C693.864319,532.354919 695.597900,532.354919 697.380737,532.354919 
	C698.742859,538.747498 697.479431,542.511230 693.070618,544.981812 
	C688.997009,547.264587 680.258972,546.175171 676.232300,542.548462 
z"/>
<path fill="#FAF7F2" opacity="1.000000" stroke="none" 
	d="
M602.999756,527.928894 
	C603.340515,531.825134 603.424500,535.291016 604.177612,538.604858 
	C604.405212,539.606445 606.461609,540.694641 607.730286,540.759155 
	C608.431824,540.794861 609.745361,538.856323 609.891907,537.695251 
	C610.221375,535.085205 609.995178,532.405029 609.995178,529.240540 
	C611.880188,529.146851 613.607300,529.061035 615.976440,528.943298 
	C615.976440,532.282959 616.265869,535.415344 615.914062,538.474060 
	C615.252075,544.230469 611.901184,546.492310 605.435608,545.996887 
	C600.740601,545.637146 598.032166,542.576538 598.014099,537.377380 
	C597.971619,525.103394 598.000488,512.829102 598.000488,500.279419 
	C603.430359,500.279419 608.488464,500.279419 613.757690,500.279419 
	C613.757690,501.817688 613.757690,503.204163 613.757690,504.903931 
	C610.255371,504.903931 606.972534,504.903931 602.999756,504.903931 
	C602.999756,512.612000 602.999756,520.026123 602.999756,527.928894 
z"/>
<path fill="#FAF7F2" opacity="1.000000" stroke="none" 
	d="
M421.000305,526.988831 
	C421.000305,517.868408 421.000305,509.245697 421.000305,500.312866 
	C426.358063,500.312866 431.412292,500.312866 436.732056,500.312866 
	C436.732056,501.756653 436.732056,503.142609 436.732056,504.838867 
	C433.327606,504.838867 430.045380,504.838867 426.887482,504.838867 
	C426.887482,515.956482 426.773621,526.766235 427.051941,537.565857 
	C427.081970,538.729980 429.388519,539.835449 430.639008,540.968140 
	C431.425659,539.576233 432.661835,538.255676 432.896667,536.776184 
	C433.276733,534.381775 432.998932,531.883057 432.998932,529.219849 
	C435.061127,529.219849 436.674438,529.219849 438.959900,529.219849 
	C438.959900,532.386108 439.324768,535.691589 438.878693,538.883789 
	C438.113464,544.359741 434.806152,546.435669 428.521912,545.997375 
	C423.804230,545.668335 421.087158,542.616028 421.009949,537.465088 
	C420.960114,534.139587 421.000397,530.812805 421.000305,526.988831 
z"/>
<path fill="#FAF7F2" opacity="1.000000" stroke="none" 
	d="
M325.998169,535.953613 
	C325.998169,523.834839 325.998169,512.210632 325.998169,500.296753 
	C328.037750,500.296753 329.758209,500.296753 331.973083,500.296753 
	C331.973083,513.417053 331.973083,526.478638 331.973083,538.875061 
	C336.109955,542.354065 343.326172,536.071594 345.450348,544.686890 
	C338.780640,544.686890 332.715271,544.686890 325.998169,544.686890 
	C325.998169,541.976257 325.998169,539.212280 325.998169,535.953613 
z"/>
<path fill="#FAF7F2" opacity="1.000000" stroke="none" 
	d="
M798.058228,501.357910 
	C799.881775,500.514740 801.660522,500.139648 803.774536,499.693848 
	C803.774536,515.140381 803.774536,529.832886 803.774536,544.760620 
	C801.976685,544.760620 800.373535,544.760620 798.013428,544.760620 
	C798.013428,530.523254 798.013428,516.174622 798.058228,501.357910 
z"/>
<path fill="#FAF7F2" opacity="1.000000" stroke="none" 
	d="
M747.070007,544.987427 
	C746.072693,544.154480 745.078491,543.333435 745.072815,542.505615 
	C744.976929,528.578064 745.004211,514.649658 745.004211,500.247803 
	C746.918945,500.152466 748.640442,500.066711 750.999023,499.949249 
	C750.999023,507.287445 750.999268,514.370483 750.998962,521.453491 
	C750.998718,528.258850 750.866211,535.068054 751.060120,541.867859 
	C751.141174,544.708862 749.914795,545.313416 747.070007,544.987427 
z"/>
<path fill="#FAF7F2" opacity="1.000000" stroke="none" 
	d="
M512.999023,527.998169 
	C512.999023,533.783997 512.999023,539.070190 512.999023,544.674622 
	C511.009857,544.674622 509.292267,544.674622 507.279114,544.674622 
	C507.279114,530.022766 507.279114,515.335815 507.279114,500.325684 
	C508.994049,500.325684 510.710999,500.325684 512.999023,500.325684 
	C512.999023,509.354095 512.999023,518.426331 512.999023,527.998169 
z"/>
<path fill="#242124" opacity="1.000000" stroke="none" 
	d="
M857.999268,514.004028 
	C858.001404,512.043396 857.915649,510.542572 858.022278,509.055603 
	C858.322998,504.863983 860.745544,503.710297 864.715942,503.914734 
	C868.470947,504.108063 870.164124,505.582184 870.020874,509.345367 
	C869.907654,512.318909 869.997986,515.300171 869.997986,518.637390 
	C866.092957,518.637390 862.377197,518.637390 858.267944,518.637390 
	C858.183472,517.328125 858.091370,515.899170 857.999268,514.004028 
z"/>
<path fill="#242124" opacity="1.000000" stroke="none" 
	d="
M629.010498,516.801270 
	C629.001343,514.340454 629.019592,512.347778 628.995667,510.355591 
	C628.943665,506.019440 630.495239,503.756714 635.408691,503.881683 
	C640.293884,504.006012 641.272522,506.449097 641.027527,510.533997 
	C640.870483,513.152283 640.998047,515.787659 640.998047,519.750916 
	C636.658447,518.852051 632.838623,518.060852 629.010498,516.801270 
z"/>
<path fill="#242124" opacity="1.000000" stroke="none" 
	d="
M368.897461,536.185486 
	C367.651489,537.781494 366.676056,539.496338 365.265717,540.004700 
	C363.224548,540.740601 360.747894,541.101440 358.703094,540.606201 
	C357.818878,540.391907 357.493378,537.656982 357.028809,536.034302 
	C356.852997,535.420288 357.044342,534.710449 356.993683,534.049927 
	C356.221161,523.981995 358.064484,523.320984 368.973633,524.486267 
	C368.973633,528.205200 368.973633,531.985168 368.897461,536.185486 
z"/>
</svg>